<?xml version="1.0" standalone="no"?>
<!DOCTYPE svg PUBLIC "-//W3C//DTD SVG 20010904//EN"
 "http://www.w3.org/TR/2001/REC-SVG-20010904/DTD/svg10.dtd">
<svg version="1.0" xmlns="http://www.w3.org/2000/svg"
 width="260.000000pt" height="260.000000pt" viewBox="0 0 260.000000 260.000000"
 preserveAspectRatio="xMidYMid meet">
<metadata>
Created by potrace 1.14, written by Peter Selinger 2001-2017
</metadata>
<g transform="translate(0.000000,260.000000) scale(0.100000,-0.100000)"
fill="#000000" stroke="none">
<path d="M180 2440 l0 -50 -55 0 -55 0 1 -977 c0 -891 2 -984 17 -1044 46
-173 202 -321 380 -358 37 -8 348 -11 1002 -11 l950 0 0 50 0 50 55 0 55 0 0
970 c0 669 -3 985 -11 1022 -39 187 -200 348 -387 387 -37 8 -348 11 -1002 11
l-950 0 0 -50z m1305 -545 c135 -29 231 -99 277 -202 29 -66 35 -177 13 -247
-23 -72 -85 -143 -154 -175 l-51 -24 57 -23 c70 -29 144 -100 175 -168 20 -43
23 -68 23 -161 0 -100 -2 -115 -28 -167 -32 -66 -104 -135 -174 -168 -94 -44
-155 -50 -540 -50 l-363 0 0 700 0 700 348 0 c268 0 363 -4 417 -15z"/>
<path d="M1000 1520 l0 -170 189 0 c110 0 202 4 218 11 102 38 134 182 60 266
-51 58 -74 63 -282 63 l-185 0 0 -170z"/>
<path d="M1008 1124 c-5 -4 -8 -95 -8 -201 l0 -194 203 3 c232 3 275 14 316
82 46 74 35 200 -22 254 -49 46 -91 55 -292 60 -104 2 -193 1 -197 -4z"/>
</g>
</svg>
