<svg width="294" height="340" viewBox="0 0 294 340" fill="none" xmlns="http://www.w3.org/2000/svg">
<path fill-rule="evenodd" clip-rule="evenodd" d="M77.4595 76.3413L76.4158 93.3965C78.6535 92.7521 92.8872 88.564 92.0087 92.8103C91.3776 95.8561 87.3759 99.1504 85.3368 101.271C83.4595 103.224 81.5286 105.124 79.5464 106.971C83.1884 105.575 86.8602 104.258 90.5592 103.022C93.358 102.087 96.1776 101.175 99.0454 100.474C100.11 100.214 102.985 99.1524 103.99 99.8761C106.633 101.778 92.2941 115.786 90.33 117.761C93.1071 116.469 95.9513 115.296 98.8433 114.289C100.932 113.562 107.383 110.784 109.231 113.156C111.209 115.694 106.309 121.523 104.95 123.37C103.002 126.017 100.892 128.558 98.6786 130.987C107.881 139.252 118.694 146.609 130.203 151.181C138.641 154.533 146.929 155.387 155.833 153.547C164.981 151.657 173.753 148.032 182.092 143.887C186.99 141.453 191.823 138.819 196.427 135.859C194.53 133.549 192.686 131.195 190.896 128.801C188.34 125.384 185.199 121.651 183.742 117.584C182.316 113.603 187.666 114.38 190.233 114.596C193.949 114.909 197.655 115.574 201.297 116.368C198.722 114.576 196.194 112.716 193.716 110.791C190.487 108.285 186.179 105.451 184.066 101.845C182.207 98.6742 186.286 99.4753 188.173 99.8904C192.67 100.881 197.046 102.569 201.335 104.216C204.478 105.42 207.597 106.687 210.689 108.015C208.77 106.345 206.916 104.601 205.133 102.786C202.737 100.35 199.507 97.3751 198.432 94.0207C196.245 87.1885 210.96 92.342 213.473 93.3965L212.081 72.165L153.626 87.72C151.521 88.2805 148.885 89.5007 146.689 89.5658C144.7 89.625 142.298 88.7297 140.358 88.3594L105.098 81.6224L77.4595 76.3413Z" fill="#0E0E52"/>
<path fill-rule="evenodd" clip-rule="evenodd" d="M286.88 319.762C284.776 320.966 282.312 321.895 279.975 322.518C278.603 322.885 276.335 324.017 275.129 322.98C274.55 322.482 274.418 321.351 274.076 320.696C273.536 319.658 272.767 318.762 272.047 317.845C270.305 315.628 268.484 313.474 266.588 311.388C265.687 310.397 264.043 308.085 262.457 308.237C260.48 308.427 260.527 311.163 261.023 312.561C262.601 317.012 267.375 320.892 270.495 324.245C269.701 325.466 265.346 325.32 264.137 325.035C262.29 324.599 262.103 323.284 261.261 321.78C259.29 318.265 255.291 316.299 252.004 314.232C250.806 313.478 248.258 311.39 246.697 311.915C245.217 312.413 245.281 314.304 245.752 315.539C246.464 317.405 248.49 318.699 249.988 319.878C251.986 321.451 253.812 323.161 255.477 325.086C253.077 325.281 250.687 325.619 248.293 325.817C245.399 326.055 242.987 324.467 240.321 323.567C237.847 322.73 235.379 322.023 232.945 321.059C230.211 319.976 227.348 319.6 224.591 318.65C213.769 314.923 203.167 310.236 192.739 305.511C187.771 303.259 182.904 301.006 177.727 299.244C173.953 297.96 168.025 295.4 167.122 290.906C166.646 288.531 168.381 285.977 168.637 283.605C168.937 280.814 168.701 277.743 167.85 275.065C167.101 272.706 165.859 270.521 164.88 268.256C163.74 265.616 164.761 265.659 166.976 265.358C169.627 264.998 172.721 263.506 175.214 262.534C178.084 261.414 180.931 259.849 183.56 258.239C185.938 256.784 188.007 254.908 189.9 252.87C191.827 250.797 193.073 248.341 194.936 246.217C201.808 254.669 208.339 263.249 215.642 271.336C219.088 275.152 222.836 278.308 227.083 281.211C228.857 282.423 230.616 283.807 232.548 284.765C234.964 285.964 237.666 286.708 240.149 287.803C249.671 291.998 258.759 296.585 267.642 301.998C271.939 304.617 275.546 307.619 279.33 310.904C280.508 311.927 290.156 317.887 286.88 319.762ZM175.18 250.524C173.641 251.221 172.175 252.126 170.533 252.574C170.998 249.742 173.641 245.47 177.029 245.94C178.324 246.12 179.3 247.125 178.731 248.511C178.214 249.77 176.276 250.028 175.18 250.524ZM68.0722 173.716C66.3279 174.679 64.7025 175.24 63.6795 173.173C64.4372 173.021 67.879 172.562 68.0722 173.716ZM65.1679 167.872C63.82 167.463 64.8977 167.033 65.3617 166.539C65.723 166.156 66.9196 164.809 67.3386 164.587C69.1874 163.607 70.6171 167.252 71.5011 168.435C69.4078 168.249 67.2055 168.489 65.1679 167.872ZM79.582 180.492C77.0268 180.925 77.3102 177.728 77.3867 176.108C77.9255 176.766 81.5743 180.154 79.582 180.492ZM88.05 174.97C84.9346 175.495 82.8763 170.113 83.4349 167.759C83.9259 165.685 86.3407 164.527 88.2625 164.221C90.125 163.924 92.7188 164.33 93.2719 166.478C93.761 168.376 90.1265 174.619 88.05 174.97ZM161.79 256.219C159.552 256.907 157.358 256.994 155.108 257.669C152.555 258.435 150.193 258.367 147.634 258.889C146.594 259.101 143.786 260.617 142.771 260.278C141.765 259.943 140.31 256.822 139.732 256.011C144.258 254.13 148.119 251.7 151.102 247.736C153.474 244.584 156.018 239.861 154.526 235.793C152.843 231.206 147.041 230.21 143.173 232.126C141.343 233.032 139.529 234.158 138.02 235.539C136.295 237.118 135.617 238.841 134.499 240.788C133.369 242.757 132.576 241.662 131.446 239.99C130.481 238.56 130.607 237.117 129.401 235.707C128.786 234.987 127.833 234.293 127.512 233.363C127.308 232.774 127.737 231.73 127.351 231.266C126.808 230.614 126.148 231.38 125.693 230.797C125.362 230.375 125.471 229.411 125.129 228.882C124.835 228.583 124.502 228.324 124.14 228.112C123.698 227.894 123.618 227.621 123.898 227.293C123.547 226.642 123.885 226.423 123.133 225.633C121.961 224.4 120.892 223.218 120.057 221.763C119.676 221.097 119.714 220.109 119.24 219.533C118.589 218.741 117.506 218.86 116.947 217.88C116.449 217.008 116.783 215.481 115.961 214.688C115.528 214.565 115.095 214.443 114.662 214.323C114.341 214.018 114.139 213.61 114.091 213.17C113.635 212.468 113.544 211.643 112.969 210.901C111.866 209.482 110.384 208.171 109.41 206.675C108.387 205.103 108.929 204.838 110.707 204.275C112.31 203.767 113.775 203.296 115.261 202.431C122.132 198.432 128.646 187.825 117.74 184.584C113.692 183.382 110.368 180.148 105.88 181.419C103.935 181.971 102.089 183.144 100.638 184.536C99.6352 185.499 98.7064 188.073 97.4753 188.566C95.2617 189.452 96.1974 187.237 95.5694 186.22C95.2691 185.734 94.0617 185.175 93.6141 184.732C93.0701 184.192 92.6001 183.583 92.2164 182.919C91.5395 181.73 91.1254 181.066 90.1492 180.098C89.7814 179.732 87.944 177.843 89.601 178.09C88.93 176.044 89.9091 175.737 91.2624 174.242C92.8524 172.487 94.4936 170.049 94.503 167.591C94.5212 162.87 88.927 160.755 85.4143 163.557C84.6995 164.127 80.4714 169.631 81.3371 166.121C81.803 164.228 86.1218 159.286 88.1239 160.565C85.8802 157.294 80.7258 165.235 79.5229 166.859C78.4984 164.974 78.4259 163.498 76.731 162.038C75.351 164.251 76.0797 161.832 75.7755 161.341C75.1183 160.279 75.4792 161.493 75.1228 161.116C74.6791 160.646 73.9804 160.276 73.5081 159.654C72.6996 160.751 73.0225 159.57 72.7746 159.161C72.1953 158.202 72.4196 157.647 71.4262 156.813C70.7034 156.206 69.2796 155.266 68.3069 155.179C67.1853 155.08 66.8747 155.51 65.7319 155.192C64.2775 154.788 62.4485 154.166 63.152 156.598C63.6632 158.365 65.7403 159.369 66.1958 161.175C66.6543 162.992 64.8568 164.824 63.9852 166.314C62.8655 168.225 61.95 168.069 59.9218 168.5C58.6257 168.776 56.8957 169.365 58.0074 170.937C58.8012 172.061 60.6618 171.824 61.7099 172.49C63.1791 173.422 63.1584 175.723 65.0343 176.123C67.1 176.564 68.2832 174.264 70.025 173.708C71.2635 173.313 75.1001 173.357 76.0743 174.287C77.4029 175.554 76.2552 177.975 76.5895 179.549C77.0869 181.883 78.666 182.026 80.6632 182.101C83.1218 182.192 83.9861 184.553 85.3083 186.426C88.4054 190.812 91.0973 195.487 94.2698 199.815C95.6744 201.731 97.7287 203.436 98.8784 205.516C100.298 208.084 98.3273 209.565 96.6254 211.409C94.4029 213.818 92.7434 216.559 90.8153 219.192C89.1021 221.532 86.9727 220.949 84.235 220.949C84.8449 219.691 85.579 218.907 87.0802 219.059C85.5105 217.143 84.2553 219.335 83.2372 220.549C81.7641 222.306 79.8438 222.729 77.9521 223.884C77.2821 224.293 73.6363 226.941 74.7441 227.845C74.8698 227.948 80.9053 223.978 81.5925 223.613C81.5925 225.079 81.2721 226.602 81.4777 228.059C81.628 229.128 82.3799 230.243 82.2191 231.354C81.9159 233.452 79.2049 235.104 78.0414 236.739C77.1653 237.969 77.3768 238.939 76.9311 240.259C76.5244 241.464 76.7379 241.099 75.7247 241.471C73.662 242.229 70.1897 241.821 68.3217 240.743C67.1621 240.074 66.2732 239.017 65.3311 238.086C64.6211 237.383 62.8365 236.184 62.6397 235.201C62.3015 233.509 65.6604 230.366 66.325 228.621C68.2024 223.696 64.983 219.867 59.9731 219.588C61.5172 218.397 63.431 219.294 65.0585 219.748C62.2764 215.893 57.5243 219.066 55.1642 221.686C53.5521 217.609 52.7741 213.31 51.7891 209.058C51.1181 206.164 48.5638 200.997 49.7032 198.017C50.2538 196.577 51.8083 195.773 52.8841 194.774C54.1062 193.639 55.1529 192.281 56.0462 190.876C58.1514 187.566 59.3666 183.387 56.4682 180.125L59.1108 179.691C57.6781 178.345 55.4181 179.001 53.5595 178.601C52.3802 178.348 48.9863 178.512 48.199 177.845C47.2519 177.042 47.8588 173.349 47.8933 172.256C47.9707 169.703 48.1842 167.247 48.4662 164.708C48.7334 162.31 48.6797 159.719 49.1752 157.363C49.5774 155.451 50.8632 154.868 52.3467 153.741C55.8924 151.047 58.7819 147.77 57.5711 143.127L58.8579 142.923C57.4705 141.919 55.6755 142.284 54.1324 141.754C55.5493 137.765 58.6833 130.754 63.7722 130.376C63.9472 132.159 63.8274 134.28 65.0303 135.756C66.3999 137.436 68.8038 137.606 70.659 136.717C72.3427 135.909 73.9228 134.198 74.6988 132.508C75.2238 131.365 75.1292 129.43 76.0506 128.523C77.2866 127.306 85.8058 128.04 85.545 130.093C85.3912 131.3 83.1135 133.329 82.4765 134.399C81.311 136.356 80.3782 138.474 79.9503 140.722C79.301 144.137 79.6772 148.645 83.1445 150.44C87.0881 152.482 91.894 149.886 95.1281 147.642C96.9095 146.402 98.6183 145.06 100.246 143.624C101.11 142.865 101.978 142.082 102.741 141.218C103.303 140.58 103.752 139.552 104.444 139.074C106.079 137.946 107.682 139.86 109.066 140.827C111.32 142.402 113.563 143.897 115.982 145.208C120.892 147.868 125.381 151.391 129.722 154.889C134.088 158.407 138.59 162.027 142.127 166.41C139.985 167.728 140.367 168.071 139.414 170.421C138.737 172.089 137.805 173.509 137.698 175.363C137.512 178.561 139.566 181.287 142.682 181.995C144.426 182.392 146.086 182.074 147.701 181.362C148.956 180.808 150.207 179.444 151.518 179.106C153.956 178.477 155.906 183.082 157.272 184.704C163.34 191.907 169.754 198.826 175.468 206.324C176.101 207.154 177.98 208.776 178.133 209.875C178.353 211.455 175.869 212.959 174.839 213.864C174.298 214.339 168.561 219.736 170.487 220.594C171.036 220.838 172.644 217.527 173.046 217.244C174.55 216.184 173.412 218.262 173.322 219.312C173.098 221.923 174.892 223.346 177.412 223.015C180.103 222.662 182.497 220.538 184.162 218.532C186.248 220.948 189.509 224.601 190.113 227.829C190.498 229.891 188.714 234.938 192.044 235.358C192.553 235.422 194.393 234.057 194.736 234.832C195.022 235.479 193.033 236.585 192.746 236.799C191.52 237.714 190.78 238.694 189.79 239.802C188.629 241.103 187.041 242.199 185.734 243.446C184.357 244.758 181.634 248.325 179.817 246.602C178.904 245.736 179.144 244.604 177.681 244.096C176.349 243.633 174.661 244.22 173.424 244.733C172.03 245.31 167.441 247.419 166.931 249.155C166.229 251.548 170.022 248.67 170.697 248.25C169.928 250.202 169.503 253.029 167.544 254.168C165.916 255.115 163.576 255.671 161.79 256.219M135.775 241.452C137.077 237.266 144.758 229.801 149.613 232.136C143.955 233.322 139.465 237.194 135.775 241.452ZM138.647 253.44C136.754 252.385 136.856 249.321 136.195 247.528C135.816 246.499 135.057 245.748 135.28 244.606C135.542 243.268 137.248 241.78 138.157 240.815C141.016 237.776 146.049 233.625 150.652 234.321C156.51 235.208 152.539 243.074 150.543 245.782C148.843 248.091 142.292 255.472 138.647 253.44ZM124.98 248.32C118.645 247.897 112.33 247.331 106.081 246.168C103.865 245.756 102.009 245.816 103.277 243.269C103.696 242.428 106.219 237.159 106.789 237.31C107.126 237.4 107.05 241.021 107.149 241.437C107.596 243.301 108.853 245.038 110.97 244.92C114.436 244.727 116.67 240.246 118.494 237.841C119.956 239.807 121.014 241.99 122.483 243.922C123.185 244.846 125.63 246.995 124.98 248.32ZM87.8355 223.451C86.7726 225.889 84.6349 228.21 83.148 230.419C82.3074 228.639 81.7163 224.555 83.71 223.239C84.4643 222.742 88.5075 221.908 87.8355 223.451ZM109.809 230.714C110.1 229.773 110.427 228.844 110.787 227.929C111.407 229.88 111.724 229.938 109.809 230.714M115.233 232.712C116.002 234.015 117.283 235.297 117.082 236.934C116.929 238.175 115.809 239.446 115.008 240.31C113.683 241.74 110.748 244.485 108.828 242.586C107.224 241 107.783 236.639 108.529 234.854C109.594 232.304 113.4 229.607 115.233 232.712ZM111.47 230.041C111.911 229.866 110.985 227.02 111.845 226.737C112.594 228.446 113.3 228.909 111.47 230.041ZM99.3635 191.752C99.0776 190.702 98.4234 190.746 98.659 189.449C98.8139 188.598 99.4893 187.689 100.002 187.015C101.022 185.671 102.369 184.563 103.826 183.725C106.901 181.955 111.123 181.22 113.876 183.991C111.302 184.397 103.413 186.937 103.362 190.457C106.224 189.906 108.475 187.031 111.345 186.126C113.701 185.381 116.256 185.434 118.6 186.219C125.015 188.368 122.348 193.913 118.727 197.515C116.577 199.653 114 201.25 111.182 202.351C109.878 202.861 109.078 202.918 107.796 202.662C107.556 202.613 107.275 202.168 106.987 202.073C106.273 201.836 106.48 202.639 105.891 202.278C105.376 201.964 104.28 199.935 103.93 199.354C103.374 198.429 103.114 197.53 102.432 196.686C101.747 195.842 101.414 194.71 100.782 193.946C100.478 193.579 99.6456 193.593 99.4222 193.235C99.087 192.696 99.5139 192.303 99.3635 191.752ZM89.5108 233.107C90.9691 230.573 93.4637 228.422 95.3938 226.208C95.5122 229.847 92.9027 232.339 89.5108 233.107ZM91.4813 234.277C94.4926 233.217 96.1516 230.682 96.4587 227.609C96.8482 223.715 99.2931 221.672 100.765 218.174C101.329 216.834 101.987 212.423 104.174 213.685C104.925 214.118 105.37 215.747 105.761 216.483C106.707 218.263 107.782 219.988 108.786 221.736C109.603 223.159 110.828 224.59 110.467 226.303C110.153 227.797 109.141 229.388 108.549 230.796C107.15 234.123 105.313 237.187 103.777 240.44C103.158 241.753 102.425 244.86 100.534 244.844C99.0372 244.831 99.2043 243.195 98.2188 242.634C96.9749 241.926 95.5605 243.273 94.5385 243.832C95.7153 241.845 97.7726 240.72 100.085 241.094C97.3161 238.336 95.4456 242.057 93.0693 242.885C90.8172 243.671 86.8229 239.968 84.9272 238.918C85.6525 237.691 86.3077 236.188 87.555 235.38C88.7382 234.613 90.1896 234.731 91.4813 234.277ZM66.9994 259.476C67.3293 257.888 68.261 256.95 68.8517 255.507C69.537 257.256 67.9327 258.287 66.9994 259.476ZM114.842 269.219C114.68 274.565 114.244 279.898 114.086 285.246C114.013 287.712 113.577 290.065 113.287 292.503C113.042 294.565 113.166 296.59 111.869 298.351C109.823 301.128 105.845 301.926 102.756 302.955C100.489 303.71 98.1946 304.395 95.9549 305.234C93.9395 305.99 92.3155 307.134 90.3987 308.032C88.685 308.835 86.8342 309.311 85.1284 310.167C83.3634 311.052 81.9682 312.13 80.1559 312.918C77.9857 313.862 76.197 315.54 74.2674 316.872C72.5685 318.045 70.771 318.95 69.3092 320.425C67.9386 321.809 66.2037 322.415 64.6502 323.644C63.0085 324.945 61.2894 325.789 59.4751 326.809C55.7578 328.897 50.7439 332.464 46.2708 330.435C47.5502 328.801 50.1686 327.231 50.3677 324.98C50.6266 322.047 48.0743 323.126 46.5962 324.063C44.3575 325.481 43.119 327.194 41.4147 329.084C39.4224 331.294 36.9056 329.807 34.4682 329.186C36.1345 327.685 37.7881 326.171 39.452 324.667C40.8571 323.399 43.0061 322.027 43.8615 320.272C44.4728 319.018 44.4432 317.298 42.9677 316.647C41.3171 315.919 39.4505 317.455 38.2279 318.369C34.9829 320.797 32.8457 323.876 30.7144 327.255C29.5815 329.052 29.0594 328.914 26.9739 328.555C24.7643 328.174 22.5546 327.768 20.3267 327.502C23.2778 324.471 26.5761 321.187 28.907 317.641C29.6623 316.491 30.6473 313.463 28.3465 313.184C27.3984 313.069 25.5107 315.008 24.7795 315.53C21.5834 317.815 18.5104 320.697 16.3925 324.032C15.6929 325.133 15.4735 326.357 14.1197 326.449C12.3488 326.568 9.05943 324.879 7.35164 324.357C10.6154 320.242 13.8564 316.098 17.6703 312.469C21.1737 309.135 24.6686 306.713 28.7665 304.156C33.1582 301.414 37.2492 298.258 41.2811 295.02C45.1409 291.92 49.1727 288.996 52.7253 285.535C59.8222 278.62 66.1431 270.669 71.3774 262.261C72.602 260.294 73.7551 258.275 74.7515 256.181C75.6877 254.215 76.1191 251.864 77.3827 250.076C77.819 249.458 78.4343 248.999 78.8233 248.355C79.1901 247.747 79.0658 247.014 79.6254 246.477C80.9196 245.234 83.2762 245.984 84.4855 246.854C86.4309 248.254 88.0046 249.954 90.1428 251.127C92.2933 252.305 94.6193 253.163 97.0006 253.742C102.566 255.095 108.083 256.206 113.753 257.028C113.169 259.191 114.602 259.532 115.077 261.479C115.653 263.841 114.914 266.813 114.842 269.219ZM61.2559 233.139C59.9938 231.264 58.8682 229.304 57.6278 227.417C56.8725 226.268 55.9368 225.034 56.5821 223.628C57.6692 221.259 61.5053 220.837 63.5868 221.87C68.3192 224.218 63.923 230.933 61.2559 233.139ZM48.73 190.263C48.2941 186.599 49.6953 183.999 53.0103 182.078C55.3728 180.708 57.2748 182.579 56.9524 185.076C56.4618 188.879 52.398 193.109 49.2964 195.093C49.0943 193.485 48.9217 191.872 48.7295 190.263M48.2246 179.779C49.2023 179.002 51.8211 179.993 52.9541 180.06L48.2793 184.144C48.1773 183.21 47.3229 180.495 48.2246 179.779ZM53.4811 144.391C61.3653 143.365 52.2895 151.827 50.0044 153.153C50.3761 151.353 51.2897 144.676 53.4811 144.391ZM74.4705 129.577C73.412 133.914 65.1817 138.645 65.0954 131.542C65.0639 128.895 66.5503 129.109 68.7205 128.855C69.958 128.71 75.0754 127.099 74.4705 129.577ZM46.0421 136.293C45.1182 138.718 44.3772 141.206 43.4715 143.634C43.0702 144.709 42.5984 145.448 41.851 146.3C41.2254 147.012 40.4809 147.192 40.5056 148.318C41.2895 148.166 41.9028 147.699 42.5358 147.249C42.3825 149.481 41.5936 151.883 41.2116 154.107C40.754 156.775 40.3734 159.444 40.2315 162.149C39.9248 168.031 39.9223 173.892 40.0515 179.778C40.1176 182.777 40.1471 185.778 40.3089 188.774C40.3897 190.264 40.4814 191.761 40.6653 193.242C40.7402 193.84 41.1741 195.113 40.9059 195.673C39.8528 197.874 35.188 191.83 33.1622 192.717C33.4536 191.043 32.7816 191.409 31.6585 190.586C31.1152 190.187 30.7612 189.508 30.1943 189.152C30.0234 188.968 29.8335 188.803 29.6278 188.659C29.3936 188.339 29.1461 188.373 28.8863 188.76C26.6037 187.396 26.014 184.488 24.7894 182.533C24.1588 181.527 23.55 181.37 23.4425 179.979C23.3493 178.768 23.5317 177.533 23.4824 176.316C23.4267 174.944 23.3464 173.43 22.9613 172.101C22.5147 170.558 21.8999 170.684 20.7024 169.862C21.0711 169.7 21.3147 169.429 21.432 169.048C21.0499 169.117 19.8879 169.591 19.599 169.25C19.031 168.581 20.371 168.492 20.7231 168.225C19.2209 167.557 19.5443 167.009 20.0866 165.787C20.2399 165.441 20.3863 164.924 20.517 164.633C20.8019 163.995 20.9656 164.399 21.0603 163.607C21.1495 162.853 20.4805 161.369 20.2833 160.565C19.953 159.216 19.7701 158.05 20.0669 156.645C20.3074 155.507 20.9543 154.476 20.9996 153.307C21.0125 152.978 20.5115 152.869 20.5051 152.552C20.4953 152.088 20.9281 151.884 21.0405 151.456C21.328 150.359 21.1983 149.2 21.6898 148.16C22.1321 147.225 23.0254 146.016 23.6575 145.2C24.0962 144.635 25.171 143.998 25.2888 143.252C25.3667 142.758 24.5971 142.815 24.6311 142.442C24.678 141.938 25.101 141.775 25.2168 141.4C25.5373 140.372 25.6172 139.383 26.4444 138.596C27.4857 137.604 27.9382 138.019 27.9811 136.383C28.0018 135.585 27.3634 135.462 27.7056 134.542C27.8914 134.042 28.4401 133.747 28.7902 133.393C29.8314 132.343 30.5335 131.41 31.2749 130.112C31.9306 128.966 32.9763 128.298 33.6483 127.308C34.5229 126.017 33.2149 125.378 34.9903 125.013C34.7378 124.212 34.4697 123.564 35.1337 122.886C35.5528 122.458 36.6152 122.72 36.986 122.225C37.4109 121.657 36.7829 120.31 37.4233 119.942C37.9439 119.642 38.7233 120.566 39.5417 120.109C40.1649 119.76 41.1065 117.836 40.9059 117.129C42.518 118.036 42.1162 117.411 42.8878 116.248C43.0604 115.987 43.5849 115.929 43.7338 115.666C44.0316 115.14 43.9635 114.603 44.3929 114.175C45.1078 113.463 46.2777 113.646 47.0646 113.138C47.7149 112.718 47.6808 112.265 48.199 111.868C48.6427 111.529 49.3704 111.464 49.8013 111.114C50.6458 110.426 50.6542 109.7 51.7097 109.107C52.9605 108.407 54.0683 107.811 55.2061 106.881C55.9476 106.275 56.6516 105.202 57.5193 104.802C58.7193 104.249 59.6541 104.21 60.8279 103.421C61.6759 102.851 62.4785 101.911 63.3112 101.43C63.9398 101.068 64.3806 101.146 65.1723 100.922C66.5971 100.518 66.9447 99.1746 68.1072 98.6278C68.9054 98.2526 70.0674 98.5963 70.944 98.3991C73.6713 97.7867 76.3656 96.466 79.1028 95.7343C82.4435 94.842 85.8078 94.0601 89.175 93.2708C86.0809 97.4638 82.1408 101.247 78.1444 104.577C76.833 105.67 69.6449 110.654 73.519 112.783C75.0744 113.637 78.453 110.878 79.7087 110.203C82.2374 108.845 84.8562 107.758 87.5047 106.659C91.787 104.883 97.3639 101.724 102.123 101.978C99.226 105.532 95.6098 108.385 92.2963 111.525C89.2514 114.411 84.6635 117.117 86.0991 121.84C81.8223 120.752 77.9807 119.465 73.5338 119.75C71.542 119.878 69.5488 119.638 67.5664 119.917C65.41 120.222 63.3798 120.944 61.3076 121.577C59.6684 122.077 57.8571 122.117 56.3489 122.949C55.6203 123.352 54.719 123.927 54.0643 124.427C53.1917 125.093 52.993 125.534 52.3072 126.411C49.8619 129.543 47.4955 132.478 46.0421 136.293ZM32.6662 195.563C32.5326 195.021 32.4113 194.527 32.258 193.907C33.6197 194.746 33.6197 194.746 32.6662 195.563ZM22.3786 178.301C22.211 178.533 21.506 178.607 21.3014 178.407C21.0465 178.158 21.7165 177.189 21.8239 176.982C22.0897 177.186 22.701 177.854 22.3786 178.301ZM19.4644 172.019L20.0052 170.033C20.2271 170.647 21.2244 171.325 21.2466 171.909C21.2604 172.297 19.6616 172.104 19.4644 172.019ZM20.0427 172.926C21.6046 173.955 21.7682 175.168 21.8146 176.943C19.9456 176.324 20.2138 174.514 20.0427 172.926ZM47.2051 102.889C47.0473 103.316 46.3783 104.646 45.8883 103.716C45.7315 103.418 46.8792 103.012 47.2051 102.89M46.7564 101.44C47.143 101.092 47.9209 101.525 48.3577 101.244C48.6634 101.047 48.5623 100.847 48.7063 100.73C48.7349 100.706 49.151 99.8643 49.3216 99.673C49.6223 99.3372 50.2795 99.1277 50.6453 98.824C51.6683 97.9761 52.2456 96.8618 52.8895 95.7279C53.6571 94.3736 53.9021 94.2168 55.1406 93.5966C55.9945 93.1697 56.6561 92.6466 57.3507 91.9199C58.1514 91.0833 58.0927 90.4843 58.7499 89.5697C59.0748 89.1186 59.5422 89.0624 59.9203 88.6986C60.3739 88.2633 60.6041 87.6539 61.0237 87.2146C61.2046 87.0243 61.7863 87.0248 61.8963 86.8621C62.0358 86.6561 62.1448 85.8322 62.2759 85.6804L63.0268 86.695C64.0138 84.9596 64.7341 83.5249 66.3842 82.3698C68.1181 81.157 69.6144 79.3822 71.406 78.2956C71.8087 78.0515 72.6291 77.949 72.9367 77.5891C73.4569 76.9802 73.0063 76.4389 73.3854 75.9217C73.8163 75.336 74.6504 75.8103 75.1977 75.5579C75.8904 75.2379 76.0886 74.3042 76.9799 74.4067C74.048 77.876 74.0845 83.2735 73.9292 87.6066C73.8616 89.4736 75.0375 90.4148 73.3016 91.7848C71.825 92.9503 69.743 92.6042 67.9968 93.3713C65.8049 94.3347 63.4606 94.8469 61.2238 95.6865C58.9101 96.5542 57.05 98.0746 54.8236 99.0804C52.8604 99.9668 51.5194 101.227 49.7234 102.321C49.0558 102.728 48.022 103.319 47.2258 102.833C46.7274 102.528 46.1062 102.028 46.7569 101.44M79.8749 72.3528C80.0021 71.8598 82.5051 70.5647 83.1209 70.1422C84.0448 69.5067 85.4129 67.9557 86.4442 68.572C86.8017 67.1403 88.1964 65.5473 89.4284 65.2441C90.7955 64.9069 93.1408 63.735 94.4852 62.7115C94.8782 62.4128 95.0078 61.976 95.4698 61.6959C96.2749 61.2079 97.073 61.4741 97.8485 60.8085C97.9669 60.707 99.0396 58.9356 99.0821 58.9528C99.1368 59.1426 99.1871 59.3349 99.2304 59.5282C100.044 59.0766 100.77 58.7177 101.276 58.1413C101.392 58.0107 100.646 57.671 100.882 57.4127C101.17 57.0957 101.813 57.4501 102.104 57.1494C101.199 61.6476 101.873 67.4375 106.437 69.7182C101.01 70.3049 95.7089 68.673 90.2148 69.6748C87.5851 70.155 84.9115 70.9423 82.5189 72.1522C81.0537 72.8937 79.1792 75.5485 77.7204 74.2593C78.2992 73.4873 79.1827 73.0076 79.8749 72.3528ZM106.208 59.4113C108.237 56.9295 111.315 55.9474 114.416 56.8363C118.045 57.8771 116.514 60.4131 115.966 63.2292C114.919 61.6935 112.65 60.1706 110.718 60.1242C107.979 60.0591 109.014 62.3413 110.659 63.1592C112.154 63.9017 114.719 64.1087 115.789 65.4601C116.831 66.7744 116.432 68.9245 116.6 70.4745L114.169 70.1136C114.849 66.4949 111.857 66.3199 109.068 65.2998C106.249 64.2695 103.898 62.2368 106.208 59.4118M115.299 50.5022V53.8595L111.912 51.9299C113.041 51.4542 114.17 50.9784 115.298 50.5022M124.37 77.3327C128.138 78.3542 131.881 79.4344 135.503 80.8435C136.818 81.3552 138.26 81.5361 139.549 82.1139C140.776 82.6637 140.961 82.607 140.524 83.6822C139.301 86.6965 136.403 86.1758 133.865 85.7149C129.891 84.9931 126 83.9923 122.076 83.0507C118.24 82.1312 114.324 81.5283 110.547 80.3751C106.67 79.1929 102.893 78.0727 98.9051 77.2918C97.7416 77.064 88.5361 76.2195 88.6061 75.2577C94.4039 74.5043 100.372 75.2463 106.196 75.3247C112.247 75.4061 118.5 75.7418 124.37 77.3327M119.255 65.6735C119.327 63.6009 119.356 61.5224 119.613 59.4616C121.337 61.5904 122.894 62.2279 125.069 60.2327C127.15 58.3223 127.614 57.3264 130.254 59.1224C132.541 60.6798 134.705 60.6079 137.135 59.2447C138.617 58.413 140.999 55.0152 142.557 55.7147C143.299 56.048 143.844 57.392 144.593 57.8865C145.533 58.5057 146.979 58.9356 148.075 59.1762C150.665 59.7431 152.207 58.0782 153.832 56.297C156.188 53.7146 156.119 55.2143 158.304 57.0055C160.741 59.0026 162.778 58.027 164.985 56.3221C166.329 60.2608 166.832 64.5618 167.212 68.6908C167.34 70.085 167.818 72.0644 166.566 73.0505C165.684 73.7456 163.81 73.7727 162.747 74.1568C158.949 75.5303 155.298 77.4792 152.122 79.9738C150.884 80.945 149.804 82.1356 148.113 81.9143C146.501 81.7033 144.934 80.3539 143.638 79.4625C142.231 78.4962 140.807 77.3988 139.163 76.8604C138.2 76.5449 136.657 76.6593 135.815 76.081C134.248 75.0052 136.092 72.1842 135.701 70.2906C135.406 68.853 134.579 65.8555 132.599 66.698C129.652 67.9517 131.367 72.8464 132.987 74.3742C129.672 73.7855 126.002 72.9257 122.805 71.8332C120.336 70.9897 119.166 68.2012 119.255 65.6735ZM174.849 75.7679C181.654 73.857 188.022 72.5683 195.103 72.2207C198.238 72.0664 201.273 72.164 204.373 72.1921C206.157 72.2084 207.517 70.7693 206.091 69.1138C204.118 66.8213 198.1 67.6939 195.433 67.5914C188.285 67.3153 181.732 68.1277 174.962 70.4838C175.678 69.165 177.398 68.994 178.576 68.3121C180.022 67.475 181.005 66.0961 181.623 64.5658C183.23 60.5862 181.612 56.8354 179.931 53.1999C183.233 54.0883 186.649 56.0337 189.969 56.5277C190.666 56.6313 191.112 56.5647 191.728 56.8186C192.106 56.9734 192.225 57.5108 192.694 57.6281C192.92 57.6853 193.464 57.1736 193.719 57.246C194.731 57.532 193.931 57.6079 194.571 58.0215C195.078 58.3499 195.037 58.7729 195.967 58.6176C196.38 58.5496 196.828 57.9111 197.045 57.8938C197.322 57.8712 197.258 57.534 197.682 57.6326C198.453 57.8115 198.385 58.8049 198.642 59.294C198.916 59.8146 198.527 60.5068 199.359 60.7913C199.98 61.0047 200.137 60.3476 200.665 60.3949C200.987 60.4235 201.653 60.8864 201.937 61.1679C202.851 62.0761 204.102 63.0783 205.33 63.6695C205.209 63.5477 205.909 63.2553 205.742 63.1863C205.629 63.141 206.364 63.3184 206.353 63.316C207.063 63.4772 207.438 64.5662 207.796 64.9636C208.455 65.6913 209.48 66.4599 210.404 66.7813C212.001 67.337 211.953 66.6729 212.536 68.571C213.672 66.7853 214.108 69.7764 215.516 70.1057C216.246 70.2763 216.161 69.9637 216.824 70.3458C217.279 70.6071 217.583 71.4092 217.926 71.7962C218.073 71.2382 218.22 70.6796 218.367 70.1225C219.381 72.0447 221.571 75.093 223.974 74.5418C223.974 75.0664 223.757 75.6935 224.164 76.1411C224.447 76.4542 224.907 76.0987 225.128 76.2807C225.322 76.4394 225.786 77.0714 225.934 77.1755C226.226 77.3806 226.757 77.5304 227.011 77.7345C227.235 77.9145 227.345 78.7738 227.593 79.0839C228.06 79.6676 228.866 79.7835 229.247 80.4836L229.508 78.4129C230.265 78.9971 230.33 79.4512 230.516 80.3061C230.78 81.5238 230.429 81.2384 231.269 81.7526C232.095 82.2579 232.525 82.2012 233.282 83.0788C234.023 83.9381 234.03 84.4681 235.101 83.5723C235.3 84.2349 235.364 85.0917 235.895 85.5995C236.297 85.9836 237.959 85.9998 238.117 86.906C234.994 84.2709 237.049 88.2731 238.119 86.9129C238.345 88.3688 239.411 88.8391 240.628 89.8759C241.763 90.8422 241.948 90.7722 242.336 92.3957C242.327 92.3602 242.906 92.7191 242.948 92.7911C241.842 92.9488 243.557 94.1843 243.846 94.4106C244.058 94.5753 244.334 94.1814 244.685 94.4481C245.086 94.7537 245.414 95.4479 245.741 95.8665C246.627 97.0014 247.283 97.9765 248.216 98.899C249.222 99.8948 249.711 101.154 250.678 102.318C251.75 103.611 252.33 105.097 253.227 106.5C254.079 107.835 255.21 108.906 256.197 110.128C257.771 112.073 258.306 116.356 261.239 116.469C261.066 116.646 261.306 117.974 261.334 118.219C261.473 119.424 261.38 120.584 262.093 121.677C262.257 120.431 262.909 120.911 263.475 121.565C264.416 122.654 263.59 122.38 263.639 123.483C263.7 124.82 263.851 123.786 264.361 124.953C264.76 125.868 264.978 126.461 265.192 127.476C263.536 127.607 262.777 126.253 262.165 124.942C261.908 124.393 261.82 123.491 261.367 123.063C260.885 122.606 260.222 122.57 259.727 122.061C258.775 121.082 258.364 119.557 257.242 118.604C255.976 117.528 255.696 117.02 254.649 115.734C253.49 114.311 251.891 113.312 250.676 111.936C249.459 110.557 249.558 111.309 248.03 110.811C246.404 110.279 243.776 105.169 241.728 107.137C241.809 105.849 239.881 104.638 238.906 104.172C238.485 103.97 237.994 104.152 237.572 103.85C237.115 103.522 237.082 102.89 236.621 102.497C236.621 102.497 235.914 102.669 235.771 102.596C235.479 102.448 235.476 101.925 235.218 101.753C234.466 101.256 233.691 100.794 232.896 100.369C231.056 99.3816 229.429 98.1659 227.653 96.9772C226.131 95.9587 224.289 94.1192 222.53 93.5823C220.994 93.114 220.028 93.3526 218.77 92.4134C218.084 91.9022 218.286 91.7301 217.185 91.4126C216.136 91.1094 215.548 91.2647 214.992 90.1535C214.021 88.208 214.634 84.4109 214.446 82.2293C214.246 79.9141 214.009 77.5413 213.406 75.2902C212.692 72.6294 211.749 71.2386 208.895 71.8653C203.24 73.1081 197.653 74.2909 191.973 75.3819C180.653 77.5561 169.528 81.1048 158.458 84.2551C157.615 84.4957 152.91 85.5724 153.871 83.1399C154.314 82.0178 157.292 81.5997 158.289 81.2472C163.76 79.3107 169.257 77.3377 174.849 75.7679ZM172.948 70.8166L170.468 71.7622V69.4633L172.948 70.8166ZM169.512 58.661C170.23 59.2481 171.691 57.8352 172.301 57.5487C173.345 57.0602 174.673 56.6406 175.839 56.7407C177.989 56.9271 179.561 59.0431 179.167 61.1891C178.501 64.8197 173.328 66.5363 170.476 67.9557C170.385 66.6689 169.968 65.1224 170.87 64.0096C171.654 63.0433 173.173 63.1133 173.895 62.0854C175.715 59.502 170.784 59.2684 169.683 61.3222L168.379 57.3846C169.428 57.2105 168.967 58.2163 169.512 58.6615M174.6 51.5547L171.521 53.5455C171.012 51.2481 172.746 50.9464 174.6 51.5547ZM268.118 131.497C266.774 132.138 266.438 130.606 265.471 130.54C266.613 129.838 266.613 129.838 268.118 131.497ZM273.584 164.945C273.751 167.146 273.62 169.373 273.914 171.566C274.137 173.234 274.813 174.787 274.885 176.474C275.043 180.169 273.795 183.932 271.275 186.64C268.891 189.203 265.481 191.408 262.263 192.485C260.814 192.97 259.3 194.045 257.892 194.443C256.334 194.883 254.854 193.925 253.569 195.643C252.712 188.276 253.338 180.579 253.271 173.166C253.203 165.737 253.283 158.305 252.027 150.956C250.907 144.411 248.701 137.049 244.634 131.694C242.982 129.52 240.948 127.74 238.803 126.072C237.69 125.207 236.577 124.283 235.337 123.6C233.429 122.548 231.804 122.694 229.729 122.394C226.76 121.965 223.999 121.603 221.019 122.439C218.244 123.218 215.188 124.105 212.703 125.457C210.227 126.805 207.352 127.36 204.782 128.568C203.034 129.389 199.402 132.132 197.462 131.639C195.585 131.16 192.805 127.974 191.606 126.546C190.074 124.722 188.806 122.607 187.447 120.645C186.97 119.955 185.997 118.89 185.873 118.006C185.658 116.469 186.273 116.971 187.74 117.143C191.513 117.586 195.061 118.286 198.677 119.473C200.477 120.064 203.995 122.454 205.795 121.022C208.542 118.835 204.367 115.076 202.838 113.813C200.233 111.661 197.204 110.063 194.427 108.151C191.476 106.119 187.575 103.956 185.676 100.827C191.221 102.464 196.76 104.338 202.143 106.449C204.606 107.414 207.04 108.434 209.353 109.718C210.653 110.439 213.277 112.389 214.842 111.455C218.244 109.425 210.432 103.528 209.305 102.323C207.553 100.45 205.837 98.5958 203.912 96.8968C202.614 95.7506 200.574 94.9445 199.97 93.254C202.125 94.0344 203.868 95.5628 205.886 96.6015C206.943 97.1453 207.907 97.4584 209.074 97.625C210.318 97.803 210.467 98.0012 211.447 98.4957C212.21 98.8817 212.995 99.3969 213.852 99.6592C214.462 99.8465 215.529 99.8786 216.063 100.225C216.336 100.615 216.618 100.997 216.909 101.373C217.234 101.469 217.555 101.58 217.871 101.705C218.344 102.127 218.625 102.709 219.086 103.144C222.428 106.305 226.9 108.568 230.648 111.216C234.193 113.722 237.956 115.989 241.362 118.722C245.281 121.87 249.348 125.252 252.681 129.026C254.565 131.159 256.114 133.577 257.696 135.936C258.842 137.644 260.508 139.06 261.498 140.821C263.658 144.66 265.45 148.81 267.774 152.587C270.143 156.436 273.228 160.26 273.584 164.945ZM241.728 187.219C242.374 184.555 246.017 181.444 248.346 180.269C247.172 183.173 244.046 185.152 241.728 187.219ZM247.736 196.513C245.75 200.634 237.018 201.105 238.203 195.007C238.783 192.02 241.247 190.187 243.362 188.232C244.339 187.329 246.734 184.096 248.248 184.617C248.177 186.941 248.04 189.275 248.045 191.598C248.048 193.15 248.439 195.055 247.736 196.513ZM245.212 149.024C246.018 150.834 246.82 152.341 245.326 153.959C244.651 154.69 242.453 156.289 241.459 155.934C238.267 154.795 244.353 149.838 245.212 149.024M225.906 132.923C226.675 132.881 227.421 132.996 228.181 132.949C228.938 132.902 229.018 132.767 229.719 132.863L229.941 133.186C230.037 133.908 230.416 133.986 231.079 133.422C231.999 133.627 232.598 133.764 233.479 134.261C231.103 135.975 228.209 137.967 225.295 138.543C220.69 139.451 221.962 133.14 225.906 132.923M155.302 171.463C154.824 172.423 153.451 170.023 153.111 169.576C153.745 169.574 155.785 170.493 155.302 171.463M192.307 146.174C195.885 144.086 200.135 142.252 203.978 140.698C204.654 143.954 201.358 148.158 199.328 150.385C197.687 152.187 195.708 154.055 193.483 155.092C191.077 156.213 188.446 155.721 188.563 152.575C188.606 151.426 188.868 149.576 189.336 148.525C189.939 147.171 191.08 146.889 192.307 146.174M143.938 86.9489C144.471 86.9178 150.255 86.1699 150.225 86.8897C150.134 89.0536 144.518 87.3541 143.938 86.9489M103.027 128.726C106.082 124.956 111.015 120.886 111.087 115.616C111.194 107.862 102.589 111.732 98.2627 112.053C100.55 109.806 112.046 100.376 105.246 97.0265C103.292 96.0642 100.514 97.0048 98.5526 97.5092C95.0729 98.404 91.8378 99.954 88.4192 101.032C90.8621 98.4321 95.0823 95.477 94.9442 91.5393C94.7751 86.7458 90.8404 87.9048 87.4381 88.6079C86.1307 88.879 80.2895 91.2021 79.1925 89.6245C78.7907 89.0467 79.441 88.3126 79.5786 87.7979C79.8221 86.8878 79.7467 86.5703 79.7551 85.64C79.7718 83.7641 81.0182 81.3547 80.0016 79.6099C79.7694 80.0063 79.5702 80.4185 79.405 80.8474C79.0698 79.8318 79.2946 78.7551 78.9594 77.74C87.4534 79.9122 96.0944 81.1013 104.642 82.9555C108.969 83.8942 113.041 85.5103 117.427 86.238C121.851 86.9711 126.198 88.0937 130.63 88.7932C134.673 89.4307 138.547 90.4931 142.552 91.3076C146.455 92.1013 150.459 90.361 154.269 89.48C162.802 87.5065 171.333 85.4847 179.877 83.5698C189.738 81.3591 199.995 79.469 209.433 75.7822C209.616 80.6962 210.009 85.6002 210.609 90.4808C206.441 88.5103 200.256 85.9407 196.042 89.4667C194.356 90.8772 193.836 93.3132 194.502 95.3843C195.228 97.6393 197.45 98.6865 198.916 100.383C194.454 99.2396 182.942 91.174 180.893 99.3269C179.445 105.085 186.505 108.805 189.957 112.046C186.529 111.375 181.938 108.634 179.925 113.038C178.186 116.846 180.281 120.99 182.427 124.13C183.59 125.832 184.898 127.433 186.135 129.082C186.788 129.955 187.426 130.839 188.114 131.685C188.803 132.534 190.103 133.423 190.586 134.337C191.558 136.179 189.596 136.291 188.07 136.957C186.165 137.788 184.53 139.184 182.788 140.296C178.799 142.843 175.312 145.208 170.599 146.022C165.745 146.86 161.072 147.735 156.283 148.904C151.509 150.069 147.611 151.188 142.731 149.683C140.506 148.996 138.693 148.386 136.334 148.514C133.855 148.651 132.406 148.522 130.367 146.986C121.598 140.381 112.078 134.962 103.027 128.726ZM87.2158 122.095C90.6052 120.394 94.0173 118.685 97.5187 117.224C100.417 116.013 104.817 114.604 107.99 115.134C107.095 117.432 105.464 119.316 103.713 121.008C102.165 122.504 100.231 124.762 98.3578 125.806C96.6569 126.754 94.6775 125.253 92.9998 124.624C91.1559 123.934 88.6194 123.611 87.2158 122.095ZM88.0677 130.674C89.7568 129.972 93.3868 132.327 94.923 132.94C97.9422 134.144 100.978 135.401 103.638 137.3C100.39 141.055 96.7102 144.488 92.3387 146.899C89.4619 148.486 84.6137 150.306 81.9002 147.424C78.4915 143.804 82.5894 136.428 85.0027 133.325L85.2433 134.917C86.0133 133.685 86.601 131.284 88.0677 130.674ZM150.077 162.808C147.969 163.252 147.253 162.851 145.862 161.236C144.922 160.143 143.998 159.009 142.937 158.026C141.855 157.024 139.183 154.608 142.587 155.999C145.691 157.267 148.35 157.901 151.764 157.404C155.668 156.837 159.308 155.186 163.158 154.35C161.047 156.197 158.952 158.062 156.838 159.904C154.605 161.848 152.914 162.211 150.077 162.808ZM150.558 177.659C145.94 181.134 136.643 180.758 139.773 173.112C140.248 171.951 140.913 170.858 141.683 169.868C141.939 169.538 142.396 168.854 142.761 168.632C143.783 168.012 143.499 167.937 144.481 168.97C145.328 169.861 151.949 177.141 150.558 177.659ZM149.189 164.373C149.612 164.236 151.394 163.202 151.801 163.774C152.212 164.353 148.717 166.356 149.189 164.373M182.807 217.373C181.769 219.858 173.459 223.454 175.007 218.446C175.692 216.227 176.339 214.548 178.926 214.38C180.419 214.283 183.721 215.186 182.807 217.373M197.713 183.706C199.081 181.714 203.599 179.02 205.527 181.991C206.457 183.422 204.201 184.155 202.838 183.787C202.106 183.589 201.507 183.151 200.711 183.118C199.687 183.076 198.687 183.88 197.713 183.706ZM201.34 185.682C200.409 186.624 194.799 191.345 193.89 190.618C195.723 187.998 197.827 185.073 201.34 185.682ZM192.177 233.454C190.229 233.565 191.202 230.629 191.39 229.455C191.862 230.273 194.341 233.332 192.177 233.454ZM197.127 228.192C196.497 227.071 194.799 225.402 195.182 223.959C195.476 222.856 198.127 221.372 199.237 222.005C200.711 222.847 198.574 228.379 197.127 228.193M243.353 216.433C242.519 219.304 241.656 218.563 239.043 219.12C236.421 219.678 234.608 221.904 232.301 223.098C233.102 221.403 233.6 219.338 234.942 217.962C235.252 217.645 237.154 217.018 236.071 216.282C235.123 215.639 233.761 217.726 233.354 218.295C231.355 221.093 229.957 224.511 228.803 227.732C228.235 229.313 227.78 230.925 227.512 232.586C227.272 234.066 227.53 235.615 227.286 237.057C226.893 239.379 223.74 239.391 221.843 239.989C220.126 240.531 218.417 241.118 216.634 241.41C215.089 241.664 213.486 241.202 211.989 241.507C210.367 241.836 209.639 242.799 207.796 242.581C206.293 242.404 204.887 241.713 203.364 241.644C201.94 241.58 200.518 242.072 199.101 241.671C197.671 241.266 197.74 241.109 198.066 239.704C198.269 240.084 198.472 240.463 198.676 240.841C199.246 240.394 199.64 239.032 199.989 238.392C200.531 237.401 200.972 237.059 200.772 235.825C200.476 234.001 198.832 232.705 198.46 230.971C198.071 229.162 199.408 227.682 200.199 226.172C201.28 224.105 201.265 222.572 200.36 220.434C201.042 220.614 201.725 220.795 202.409 220.976C201.472 218.943 198.297 219.767 196.705 220.369C195.905 220.671 194.637 221.861 193.776 221.83C192.593 221.789 191.976 220.233 191.468 219.377C189.996 216.898 188.316 214.451 186.576 212.15C186.097 211.517 185.47 211.11 185.635 210.389C185.776 209.777 187.148 208.91 187.594 208.533C189.263 207.121 191.388 206.339 192.956 204.853C195.325 202.608 198.058 200.999 200.481 198.798C203.005 196.506 205.606 194.399 208.236 192.233C210.9 190.039 213.208 187.452 215.853 185.235C216.538 186.478 217.866 190.924 219.384 191.268C221.154 191.669 221.102 189.575 221.014 188.314C220.888 186.518 219.891 184.773 219.78 183.059C219.66 181.225 221.425 180.405 222.756 179.345C224.813 177.706 229.364 173.975 226.918 170.903C224.81 168.257 217.956 173.33 216.067 174.855C214.462 176.152 213.221 177.324 211.414 178.346C210.142 179.064 208.01 181.828 206.503 181.573C204.711 181.27 204.011 179.312 201.819 179.377C199.676 179.44 197.857 180.983 196.528 182.532C193.524 186.034 192.493 190.72 189.755 194.37C188.406 196.17 186.656 197.656 185.192 199.359C183.585 201.228 183.243 203.381 181.658 205.21C177.123 199.168 172.181 193.446 167.398 187.602C165.009 184.684 162.67 181.731 160.333 178.771C159.457 177.662 158.469 176.622 157.666 175.456C156.567 173.861 156.765 172.58 156.334 170.801C156.143 170.012 155.247 169.067 155.487 168.313C155.81 167.301 158.074 166.505 158.891 166.091C162.225 164.399 165.249 162.283 168.358 160.215C174.116 156.386 179.94 152.796 186.064 149.526C185.958 150.935 185.041 152.395 185.657 153.808C185.944 152.995 186.398 149.372 187.484 149.217C187.276 149.247 187.447 153.863 187.615 154.522C188.116 156.489 189.57 157.833 191.651 157.82C195.612 157.794 199.164 153.485 201.363 150.629C202.852 148.696 204.281 146.448 204.806 144.029C205.278 141.856 204.759 140.346 207.017 139.242C211.651 136.98 216.321 135.136 221.277 133.936C221.055 136.071 220.435 138.7 222.376 140.236C224.519 141.931 227.322 140.42 229.339 139.299C231.337 138.188 234.418 135.137 236.765 136.023C239.073 136.895 240.679 139.79 241.972 141.712C243.11 143.406 244.35 144.628 243.031 146.517C241.553 148.633 240.591 150.699 239.407 152.998C238.952 153.882 238.518 154.458 238.839 155.363C238.944 155.658 240.13 157.407 240.453 157.658C242.508 159.258 245.285 156.214 246.752 155.059C247.27 160.034 247.386 164.987 247.594 169.977C247.747 173.632 249.162 177.23 246.163 179.902C243.165 182.573 240.662 185.315 238.834 188.931C237.858 190.864 236.982 192.846 235.926 194.739C235.221 196.003 233.732 197.856 234.643 199.344C235.604 198.432 235.891 197.045 236.691 196.017C237.171 198.151 237.654 200.519 239.911 201.423C242.508 202.464 245.089 200.663 247.389 199.661C246.564 205.366 244.956 210.91 243.353 216.434M240.698 222.991C238.915 226.8 237.306 231.393 234.014 234.198C233.292 234.814 230.221 237.218 229.052 236.816C228.06 236.473 228.606 234.469 228.779 233.61C229.656 229.251 231.173 226.508 234.708 223.727C236.171 222.576 238.049 221.104 239.936 220.82C241.967 220.515 241.382 221.527 240.698 222.991ZM290.972 313.411C286.351 307.128 279.819 302.244 273.647 297.523C270.851 295.385 267.771 293.781 264.946 291.642C261.752 289.224 258.509 286.891 254.931 285.069C248.15 281.613 240.751 279.204 234.351 275.117C231.229 273.125 227.815 271.199 224.88 268.961C223.591 267.978 222.453 266.722 221.288 265.595C220.206 264.549 217.882 263.031 217.452 261.5C219.253 261.205 220.277 259.458 221.884 259.28C222.414 259.22 225.732 260.098 225.278 258.489C226.481 258.459 226.622 258.441 227.63 258.178C228.048 258.068 228.543 258.239 228.966 258.089C229.612 257.861 230.052 257.202 230.704 256.95C231.168 256.771 232.89 256.971 233.152 256.748C233.865 256.139 233.107 256.192 232.682 255.432C234.067 255.396 235.019 256.096 236.409 255.352C236.831 255.125 237.189 254.602 237.6 254.332C238.326 253.851 238.589 254.596 239.087 253.599C239.553 254.975 239.541 254.594 240.663 254.189C241.782 253.786 242.59 253.495 243.864 253.394C246.908 253.153 249.962 253.523 252.992 253.307C254.1 253.227 255.048 252.975 256.149 253.121C257.118 253.248 256.826 253.922 257.632 253.014C257.819 252.803 257.214 252.225 257.504 251.922C257.632 251.787 258.049 251.882 258.207 251.813C259.624 251.195 259.63 252.058 259.882 253.184C260.712 252.989 261.56 252.813 262.282 252.326C261.917 252.001 261.307 251.641 261.659 251.047C262.857 251.501 263.64 251.292 263.041 252.607C264.247 253.005 264.472 252.486 265.555 252.372C266.196 252.305 267.089 252.702 267.622 252.191C268.205 251.633 267.286 251.026 268.356 250.546C268.576 250.658 268.738 250.826 268.844 251.051C269.422 251.226 269.318 251.453 268.533 251.734C270.637 252.825 270.143 251.605 271.027 250.315C271.231 250.018 272.145 249.094 272.561 249.54C273.193 250.217 271.903 250.432 272.18 251.104C272.659 252.27 274.331 250.776 274.844 250.185C275.232 249.739 275.391 248.884 275.809 248.55C276.391 248.087 277.227 248.803 277.955 248.674C281.28 248.092 284.42 243.621 281.915 240.628C281.242 239.824 280.672 239.984 279.87 239.476C279.077 238.974 278.632 238.106 277.996 237.389C276.56 235.769 274.755 234.518 272.733 233.745C268.021 231.927 262.944 230.601 257.996 229.625C255.704 229.174 253.265 228.483 250.919 228.488C249.537 228.49 247.455 229.565 246.163 229.05C243.651 228.049 247.339 222.924 247.948 221.269C249.735 216.406 251.084 211.222 251.969 206.117C252.142 205.117 252.075 203.823 252.435 202.871C252.848 201.777 252.937 201.932 253.821 201.843C255.418 201.681 257.165 202.519 258.829 202.229C260.672 201.909 262.664 202.058 264.525 201.487C265.381 201.226 266.174 200.941 266.737 200.219C266.914 199.993 266.717 199.795 266.829 199.637C266.864 199.587 267.5 198.901 267.521 198.861C267.514 198.506 267.546 198.154 267.614 197.805C268.258 198.341 267.94 199.464 269.027 199.49C269.221 198.292 269.223 198.051 270.009 197.377C269.949 197.429 270.601 196.875 270.517 196.933C270.557 196.721 270.636 196.521 270.752 196.337C271.115 196.161 271.512 196.065 271.916 196.055C272.766 195.181 272.413 194.715 272.413 193.54L274.469 194.608C274.635 191.124 276.756 189.217 278.165 186.394C278.766 185.191 279.378 184.251 279.521 182.8C279.604 181.963 279.388 181.224 279.735 180.435C280.049 179.72 280.752 179.334 281.046 178.554C281.624 177.02 281.193 175.061 281.225 173.468C281.269 171.258 281.489 169.055 281.562 166.847C281.703 162.511 281.267 158.055 280.619 153.769C280.308 151.719 279.789 149.73 279.382 147.702C279.046 146.035 278.244 144.471 277.957 142.92C277.838 142.275 278.022 141.697 277.828 140.984C277.572 140.048 277.144 139.126 276.826 138.206C276.082 136.057 275.347 133.911 274.511 131.795C272.891 127.694 270.994 123.716 269.192 119.694C267.459 115.826 266.023 111.839 263.778 108.227C261.566 104.67 259.186 101.173 256.748 97.768C254.209 94.2218 250.999 91.175 248.538 87.5962C243.915 80.8765 237.467 75.34 230.721 70.7678C216.801 61.3326 201.758 51.9122 185.066 48.677C182.551 48.1899 180.003 47.8517 177.439 47.7886C175.848 47.7492 173.212 48.5183 171.706 47.9799C170.019 47.377 170.173 45.4823 169.752 43.9959C169.208 42.0855 167.984 40.8337 166.592 39.4829C165.128 38.0615 163.799 36.4006 161.973 35.4338C160.123 34.4547 157.94 34.0884 155.889 33.7921C154.059 33.5273 151.324 33.7748 149.651 32.9771C148.128 32.2504 148.88 31.4932 150.306 32.1158C150.411 31.4868 150.495 31.0805 150.898 30.5944C151.101 30.3499 152.057 30.0072 152.08 29.7795C152.107 29.5123 151.305 28.752 151.19 28.4079C150.944 27.6664 151.084 26.6395 151.377 25.9438C152.815 27.2222 153.231 27.7882 154.837 26.5665C155.515 26.0503 155.723 25.8231 156.508 25.5628C156.721 25.4918 157.199 25.7107 157.385 25.5874C158.094 25.1205 157.442 25.2305 157.779 24.6783C157.694 24.8178 158.29 23.3496 158.261 23.6568C158.334 22.8749 158.565 23.1154 158.093 22.1546C157.168 20.2752 154.814 20.1983 156.014 18.0537C156.486 17.2102 156.902 17.294 157.035 16.0703C157.106 15.4127 157.018 14.6584 157.015 13.9893C157.009 12.6208 157.266 11.6623 155.984 10.9662C154.752 10.2957 153.615 11.0313 153.115 9.36886C152.59 7.62508 153.118 5.38928 151.229 4.19472C149.849 3.32209 147.855 4.06851 146.33 3.64156C144.801 3.21412 143.395 1.6498 141.843 2.85077C140.741 3.70467 140.156 5.80292 138.079 4.6685C137.141 4.15626 136.626 2.43812 136.034 1.47429C135.092 -0.0614364 134.337 -0.616564 132.888 0.879721C131.994 1.80214 130.111 4.04829 129.996 5.32568C129.869 6.73569 131.099 7.32484 129.554 8.15901C128.018 8.98875 127.157 8.38037 125.909 10.065C124.672 11.7363 125.63 12.6592 124.197 14.2585C122.405 16.2572 121.452 17.12 121.478 19.8128C121.495 21.6596 119.863 23.255 120.815 25.0071C121.882 26.9713 124.996 27.7877 126.884 28.5869C126.253 29.7514 125.389 30.4983 126.125 31.6968C126.791 32.7824 128.674 33.0082 129.842 32.811C130.628 32.6789 130.656 32.7977 131.274 32.245C131.679 31.8836 131.124 31.432 131.958 31.2319C132.845 31.0174 134.263 32.7577 134.84 33.1926C133.551 34.8639 130.013 35.1769 128.142 36.0244C127.001 36.5411 125.953 37.3058 124.791 37.7677C123.737 38.1868 122.455 38.0896 121.5 38.7379C119.85 39.8581 119.163 42.6327 118.152 44.2646C117.007 46.1109 115.898 46.9683 113.702 47.3518C110.962 47.83 108.755 48.0218 106.2 49.2154C103.079 50.6722 100.004 52.2109 96.9394 53.7817C91.9965 56.3152 87.4046 58.9159 82.8147 61.9804C78.0128 65.1864 73.342 68.5325 68.7087 71.883C64.1257 75.196 60.2782 79.2727 56.2972 83.2799C53.0793 86.519 50.2553 90.0149 47.0498 93.253C43.2654 97.0768 40.4819 101.902 36.9732 105.958C35.0534 108.177 33.2164 110.359 32.012 112.974C31.0358 115.093 29.3379 117.172 28.2045 119.395C26.7565 122.237 25.3859 125.034 23.76 127.782C23.093 128.91 22.3002 129.878 21.5957 130.954C20.694 132.333 20.7477 133.665 20.5047 135.254L19.7449 134.091C19.2854 135.094 18.7303 136.081 18.3325 137.108C18.0786 137.763 18.1185 138.694 17.8636 139.267C17.5431 139.987 17.1537 139.891 16.7553 140.491C16.3289 141.132 16.1913 141.993 15.7422 142.68C13.7992 145.652 13.0518 149.423 12.0535 152.814C10.7145 157.363 10.926 162.591 10.9984 167.281C11.0758 172.236 11.3465 177.19 12.0914 182.092C12.7664 186.532 14.2089 190.79 16.4674 194.683C18.4355 198.075 21.149 200.051 24.6252 201.788C26.2216 202.586 27.7031 202.34 29.3783 202.467C31.2138 202.607 32.4656 203.105 34.407 202.667C35.3388 202.456 35.7801 201.778 36.5201 201.551C36.9786 201.412 37.2251 201.64 37.6648 201.587C38.2939 201.511 39.6024 201.202 40.2847 201.276C42.4081 201.508 42.0517 204.718 42.2607 206.356C42.5821 208.881 42.8178 211.433 43.2511 213.941C44.1632 219.218 46.1313 224.146 47.2943 229.331C41.9028 229.989 37.2778 230.995 32.2245 233.036C27.1549 235.083 22.029 235.777 16.6937 236.795C11.7025 237.746 6.90152 239.526 2.90617 242.748C1.03372 244.258 -0.911697 246.025 0.463307 248.512C1.34284 250.102 2.92786 250.506 4.29597 251.43C4.57255 251.08 3.77338 250.339 3.62646 250.134C4.77665 250.37 4.74165 250.907 5.58174 251.374C6.31583 251.782 6.91681 251.768 7.72041 252.056C9.68259 252.761 10.6469 254.52 12.5864 255.014C13.1968 255.169 13.995 255.541 14.6186 255.647C15.368 255.773 15.9295 255.445 16.6892 255.584C17.0994 255.854 17.5422 256.047 18.0194 256.163C18.3315 256.018 18.6406 255.865 18.9443 255.703C20.0358 255.817 20.7097 256.503 21.5967 257.067C21.6558 256.356 21.5705 255.618 22.243 255.155C22.5058 255.846 22.0813 256.284 22.7981 256.759C23.7063 257.362 24.8988 256.609 25.7118 256.228C25.9421 258.525 31.2602 258.39 32.9458 258.357C35.2802 258.312 37.6121 257.385 39.9672 257.903C41.1687 258.166 42.451 258.441 43.647 258.783C45.0866 259.194 46.8279 259.562 48.2453 260.081C48.8093 260.288 49.4995 260.949 50.0995 260.904C50.5778 260.869 50.7054 260.164 51.2616 260.185C51.8906 260.207 52.1021 260.908 52.6469 261.119C53.4619 261.434 54.2113 260.835 54.9858 261.138C55.2643 261.246 55.6415 261.713 55.9979 261.865C56.5387 262.096 57.6096 262.099 58.2115 262.21C59.0644 262.368 59.8291 262.262 60.5602 262.314C61.1499 262.356 61.137 262.753 61.419 262.779C61.743 262.808 62.3065 261.695 62.7413 261.532C63.3743 261.294 64.5235 261.861 65.1694 261.96C60.4907 268.301 54.8507 273.906 48.7364 278.813C42.1414 284.107 35.3876 289.394 28.3154 294.037C21.894 298.253 15.6781 301.9 10.6997 307.851C6.50169 312.87 -0.181054 318.239 0.849336 325.513C1.87874 332.78 9.77035 335.738 16.0937 337.125C24.0469 338.871 32.2339 338.168 40.2083 339.149C43.6091 339.568 47.3875 339.344 50.811 338.988C54.8541 338.567 58.3195 335.928 61.7952 334.02C68.0481 330.588 73.3933 325.996 79.5519 322.457C87.2626 318.025 94.8929 313.329 103.347 310.361C107.279 308.981 111.328 307.405 114.5 304.564C114.973 304.142 115.324 303.504 115.858 303.155C116.765 302.564 117.007 303.164 117.534 302.984C117.939 302.846 118.331 302.409 118.681 302.278C119.569 301.946 119.964 302.083 120.957 302.083C120.104 301.592 119.325 300.325 120.209 299.292C121.724 297.523 121.985 300.35 122.554 301.004C123.037 300.384 122.852 299.833 122.729 299.128L123.952 299.936C123.671 298.572 123.938 297.316 124.66 296.128C125.326 295.034 125.491 295.187 125.675 293.67C127.744 295.558 128.148 290.975 128.334 289.303C128.514 287.683 128.336 286.519 129.402 285.102C130.546 283.58 132.286 282.619 133.739 281.437C136.033 279.568 138.558 277.21 141.73 279.001C144.236 280.416 145.599 283.883 147.949 285.664C149.373 286.745 150.879 286.855 151.787 288.53C152.522 289.885 152.76 291.507 153.454 292.897C155.134 296.27 157.553 300.128 160.312 302.714C162.881 305.122 166.178 305.109 169.184 306.602C172.159 308.081 175.251 309.682 178.401 310.753C181.841 311.924 185.55 312.422 188.899 313.839C190.622 314.569 192.162 315.667 193.9 316.365C195.775 317.117 197.749 317.648 199.649 318.338C207.173 321.071 214.538 324.423 222.443 325.938C225.949 326.61 229.195 328.435 232.727 328.82C234.242 328.984 235.478 329.193 236.961 329.572C239.286 330.166 238.794 330.482 239.65 332.421C241.061 335.614 244.502 333.724 247.156 333.803C251.403 333.932 255.586 333.245 259.826 333.212C267.242 333.156 274.382 332.319 281.556 329.885C288.758 327.441 296.957 321.55 290.972 313.411" fill="black"/>
<path fill-rule="evenodd" clip-rule="evenodd" d="M205.25 63.98C205.351 64.0816 205.59 64.1432 205.25 63.98V63.98ZM74.6228 199.951C76.2334 198.319 83.0863 198.649 83.6044 201.568C84.1817 204.828 78.0581 209.75 75.8173 211.13C72.9332 212.907 69.4131 213.239 69.9249 208.78C70.3114 205.412 72.3293 202.275 74.6228 199.951ZM80.2825 196.591C80.491 197.494 78.9514 197.187 78.5269 196.972C78.3267 196.562 80.073 195.685 80.282 196.591M68.4646 202.568C69.8312 202.69 71.3975 200.497 72.4284 199.751C72.8844 200.456 69.879 204.328 69.5482 205.211C68.7224 207.419 68.2629 210.208 69.3885 212.411C72.6793 218.846 81.0999 209.656 83.2061 206.446C84.6797 204.201 85.6997 201.417 83.6182 199.218C82.8772 198.434 81.6531 198.217 80.9648 197.471C80.0587 196.492 80.7716 195.228 78.9499 195.441C77.6927 195.589 76.1836 196.723 74.9614 197.134C73.4883 197.628 72.1641 198.14 70.8783 199.056C70.5885 199.263 66.776 202.416 68.4646 202.568ZM165.069 204.727C164.21 209.149 159.828 213.684 155.219 213.86C150.628 214.035 149.141 209.226 149.952 205.392C150.643 202.122 153.469 196.442 157.501 197.068C160.67 197.56 165.805 200.938 165.068 204.727M162.145 197.338C159.235 195.086 155.213 194.043 151.839 195.831C150.733 196.416 146.318 199.001 147.661 200.75C149.473 199.346 151.037 197.398 153.391 196.931C152.995 198.756 150.734 200.398 149.937 202.175C149.006 204.251 148.497 206.627 148.649 208.909C148.921 212.97 151.641 216.125 155.852 215.567C159.707 215.056 163.077 212.101 164.916 208.779C167.371 204.343 165.988 200.311 162.145 197.338M135.115 214.778C133.042 217.846 129.882 220.734 126.228 221.681C121.498 222.908 122.826 218.999 124.24 216.193C125.49 213.714 127.634 209.447 130.899 209.47C132.008 209.477 134.071 210.013 135.043 210.605C136.957 211.774 136.206 213.163 135.115 214.778ZM130.7 208.034C131.444 207.205 134.737 203.654 135.178 206.422C136.124 205.326 135.378 204.416 134.168 204.3C132.707 204.161 131.11 205.787 130.056 206.595C127.887 208.257 126.217 209.96 124.779 212.291C123.194 214.86 119.153 220.667 122.69 223.217C126.513 225.973 132.077 220.883 134.471 218.259C136.002 216.579 138.029 214.114 137.447 211.652C136.732 208.628 133.215 208.31 130.7 208.034ZM114.388 158.579C112.249 161.02 107.903 164.576 104.323 164.157C101.057 163.775 102.332 160.11 103.488 158.336C105.224 155.67 107.55 153.167 110.911 153.021C112.362 152.958 114.242 152.988 115.366 154.086C116.9 155.587 115.518 157.291 114.388 158.579ZM114.161 151.798C111.655 150.932 110.67 150.602 108.235 151.979C106.279 153.084 104.545 154.646 103.203 156.42C101.194 159.076 99.1682 165.049 104.326 165.795C109.983 166.615 123.44 155.006 114.161 151.798ZM121.871 167.037C120.244 168.699 118.212 170.056 115.893 170.518C116.874 168.33 119.065 163.547 121.662 162.881C122.858 162.574 124.223 162.976 124.124 164.34C124.053 165.326 122.513 166.381 121.871 167.037ZM123.967 161.251C122.619 160.575 123.044 160.114 121.476 160.644C120.24 161.061 118.682 161.785 117.653 162.619C117.092 163.075 115.344 164.689 115.558 165.511C115.946 167.003 117.249 164.716 117.592 164.276C118.179 164.754 115.176 169.051 114.998 169.758C114.332 172.392 116.399 172.67 118.425 171.809C121.156 170.648 129.246 163.896 123.966 161.251M164.02 232.111C164.222 230.366 164.508 228.52 166.111 227.54C167.554 226.656 169.049 226.784 169.263 228.596C169.462 230.279 167.813 233.268 166.479 234.187C164.622 235.465 164.264 233.871 164.02 232.111ZM166.406 236.084C170.22 233.853 172.623 223.619 165.594 226.487C161.6 228.117 163.069 238.037 166.406 236.084ZM133.838 193.648C134.44 192.416 135.127 192.006 136.347 191.467C135.534 192.235 134.703 192.944 133.838 193.648ZM134.718 190.611C133.854 191.477 131.875 192.799 132.153 194.287C132.405 195.646 133.443 195.568 134.384 195.144C136.358 194.257 137.456 190.372 139.521 190.009C137.231 188.557 136.696 188.625 134.718 190.611M135.021 113.464C135.131 117.6 135.228 121.737 135.319 125.874C135.351 127.328 135.004 129.4 135.44 130.793C135.633 131.407 137.376 134.066 137.994 134.238C140.157 134.84 139.384 129.417 139.399 128.082C139.452 123.578 139.386 119.068 139.367 114.563C139.357 112.242 140.013 92.7768 137.001 92.8714C136.482 92.8882 135.203 95.1136 135.011 95.5598C134.406 96.9609 134.628 99.038 134.642 100.532C134.683 104.841 134.907 109.156 135.021 113.463M153.259 125.523C153.429 126.667 153.34 128.574 154.627 129.167C155.748 129.682 156.177 129.069 156.596 128.111C157.559 125.906 157.212 122.535 157.194 120.256C157.159 115.738 156.65 111.239 156.298 106.738C156.143 104.763 156.464 102.779 156.218 100.714C156.109 99.8066 156.001 96.1583 154.32 96.3284C152.8 96.4812 152.937 100.305 152.855 101.29C152.165 109.491 152.046 117.337 153.259 125.523M225.002 219.693C224.358 222.986 213.847 234.455 211.201 228.041C209.631 224.235 213.034 220.092 215.688 217.889C217.331 216.526 219.383 215.188 221.622 215.601C223.522 215.952 225.411 217.601 225.002 219.693ZM219.575 213.785C218.832 213.961 212.627 218.318 212.57 218.261C212.032 217.72 215.945 211.886 216.348 211.376C219.666 207.172 221.868 210.355 223.943 213.659C223.501 211.686 222.286 208.82 220.254 207.986C217.689 206.932 215.688 209.533 214.454 211.403C212.71 214.046 211.749 216.916 210.779 219.898C210.317 221.321 209.79 222.61 209.008 223.893C208.235 225.158 206.883 226.554 207.083 228.154C208.182 227.544 208.765 226.349 209.457 225.364C210.229 225.677 209.963 228.138 210.12 228.765C210.514 230.339 211.589 231.571 213.253 231.842C216.354 232.346 219.701 229.478 221.774 227.529C223.958 225.476 226.31 222.662 226.291 219.502C226.271 216.201 223.024 212.969 219.575 213.785ZM227.98 160.864C226.221 163.556 223.134 166.783 219.868 167.409C217.471 167.868 215.89 166.091 216.853 163.693C217.666 161.666 220.438 160.385 222.255 159.493C223.696 158.786 230.415 157.138 227.98 160.864ZM226.686 156.46C223.082 156.324 220.176 158.929 217.489 161.009C218.096 158.62 219.469 156.022 221.402 154.467C224.032 152.352 226.526 153.665 229.295 154.723C228.611 152.567 225.545 151.792 223.591 152.096C221.121 152.482 219.345 154.59 218.096 156.63C216.606 159.064 216.096 161.932 214.343 164.214C213.54 165.26 208.568 169.169 209.694 170.767L215.265 164.853C215.747 167.183 216.277 169.836 219.252 169.609C221.628 169.428 224.338 167.409 226.075 165.865C228.318 163.871 232.733 156.689 226.686 156.46ZM176.208 179.449C174.682 180.151 171.321 181.105 170.468 178.996C169.282 176.067 173.097 170.93 174.913 168.978C176.03 167.778 176.788 167.157 178.345 167.933C179.589 168.554 181.416 170.317 181.892 171.673C182.916 174.583 178.596 178.351 176.208 179.449M179.71 165.382C180.953 165.663 181.105 167.241 179.551 166.635C178.387 166.181 178.116 165.023 179.71 165.382ZM181.271 167.606C180.807 166.19 181.751 163.969 179.465 163.867C178.17 163.809 175.797 165.126 174.666 165.661C173.098 166.403 171.623 167.535 170.805 169.13C170.046 170.608 170.588 170.997 171.743 169.771C171.885 169.867 169.129 176.973 169.106 177.685C168.998 180.939 171.301 183.082 174.536 182.506C177.509 181.975 180.189 179.544 181.825 177.09C182.653 175.847 183.333 174.426 183.395 172.904C183.49 170.571 181.934 169.633 181.271 167.606ZM195.532 166.412C194.278 163.996 197.185 159.931 199.787 161.12C205.206 163.596 197.178 169.58 195.532 166.412H195.532ZM200.4 163.258C199.819 163.282 196.142 164.702 196.683 165.664C197.426 166.986 200.11 163.79 200.4 163.258ZM22.6511 158.793C22.5057 157.764 20.1994 159.258 20.2127 159.921C20.5943 159.158 22.9538 160.937 22.6511 158.793ZM148.793 81.0367C151.729 80.8208 147.988 66.0068 145.848 67.3167C143.528 68.7366 146.098 81.2344 148.793 81.0372M154.276 74.1193C157.027 74.5137 156.59 68.1963 155.111 67.0658C152.379 64.9789 150.936 73.6411 154.276 74.1193Z" fill="black"/>
</svg>
