<svg width="493" height="390" viewBox="0 0 493 390" fill="none" xmlns="http://www.w3.org/2000/svg">
<path fill-rule="evenodd" clip-rule="evenodd" d="M162.97 143.326C167.203 151.601 171.674 159.657 176.189 167.781C178.58 172.082 186.288 189.87 188.279 190.55C190.423 191.282 203.556 183.559 207.325 182.046C214.022 179.358 220.387 176.812 227.383 175.154C235.217 173.297 243.113 171.929 251.239 172.619C254.798 172.922 260.689 173.782 257.152 168.782C254.573 165.137 252.075 161.779 248.573 159.145C246.024 157.228 242.288 153.711 239.303 152.43C236.172 151.086 231.554 151.384 228.189 151.463C224.551 151.549 207.211 156.96 206.257 151.321C204.489 152.93 203.458 152.307 201.432 153.093C199.148 153.979 197.724 155.699 195.455 156.737C193.984 157.412 191.271 160.076 189.635 160.092C187.46 160.113 186.874 158.312 185.313 156.983C181.815 154.004 177.155 152.044 173.359 149.455C170.016 147.175 166.833 144.799 162.97 143.326ZM201.066 77.9163C201.363 81.694 200.343 85.2039 200.368 89.0914C200.379 90.7876 200.455 92.4827 199.941 94.1169C199.478 95.5819 199.801 98.2133 199.556 99.7477C203.883 98.4306 211.922 96.4772 216.34 98.2532C220.564 99.9511 221.095 107.804 221.243 111.623C221.345 114.227 220.189 118.238 221.066 120.73C221.474 121.892 221.477 122.268 221.452 122.372L221.449 122.383C221.532 122.341 221.871 122.341 223.067 123.204C224.253 124.059 225.668 124.53 226.84 125.474C228.971 127.194 229.336 129.142 230.388 131.633C231.409 134.054 234.13 136.204 237.168 136.117C234.726 131.691 231.336 127.558 233.282 122.36C234.75 118.437 232.176 113.832 230.153 110.106C229.482 108.871 222.054 99.4151 225.345 98.7488C227.483 98.3153 232.389 108.353 233.328 110.106C235.946 108.336 237.121 106.154 235.107 103.488C233.559 101.441 231.659 99.6906 230.153 97.5709C227.707 94.1302 225.323 90.0238 222.419 86.9678C217.317 81.6019 208.411 77.949 201.066 77.9163ZM221.448 122.383C221.42 122.403 221.432 122.422 221.445 122.393L221.449 122.383H221.448ZM132.505 72.0532C129.245 75.1762 125.121 77.7666 121.971 81.0443C119.213 83.9135 115.5 88.7399 114.19 92.5731C120.912 93.8685 132.081 97.8364 134.757 104.891C145.212 95.2943 149.255 112.839 151.33 120.176C157.448 117.528 156.228 108.714 156.147 103.568C156.084 99.486 153.597 94.6546 159.525 94.3197C163.954 94.0703 168.256 95.8746 172.251 97.5636C177.236 99.6717 182.465 102.825 186.491 106.447L190.686 103.181C183.805 99.317 180.218 91.9295 176.189 85.1651C174.904 83.0088 173.188 80.6108 172.251 78.2799C171.602 76.6679 171.147 73.4141 170.436 71.9811C169.318 69.7278 158.399 69.1075 155.507 68.5266C147.871 66.9945 138.744 66.0754 132.505 72.0532Z" fill="#0E0E52"/>
<path fill-rule="evenodd" clip-rule="evenodd" d="M134.245 122.126C131.425 121.982 128.617 122.611 125.796 122.337L133.142 115.939C134.224 117.839 134.303 120 134.245 122.126ZM201.161 78.2799C208.462 78.3121 217.367 81.9789 222.438 87.3342C225.125 90.1723 227.346 93.9839 229.618 97.1723C231.142 99.312 232.631 101.377 234.48 103.257C237.178 105.997 236.406 106.624 233.366 108.687C232.404 106.884 227.304 97.2455 225.166 97.679C221.917 98.3386 228.191 108.519 228.876 109.788C230.906 113.54 234.183 118.782 232.71 122.74C230.768 127.964 233.585 130.942 236.031 135.393C233.462 135.468 233.209 134.466 232.324 132.275C231.187 129.459 229.945 127.106 227.541 125.159C225.679 123.652 222.633 123.017 221.759 121.197C220.677 118.947 221.356 114.504 221.268 112C221.135 108.197 221.125 99.205 216.934 97.5154C212.543 95.7449 204.647 97.4135 200.354 98.725C200.89 95.373 202.581 93.184 202.558 89.4589C202.533 85.5598 201.459 82.0809 201.161 78.2799ZM257.245 140.484C253.427 139.275 249.806 138.001 245.877 137.177C241.766 136.315 241.491 135.328 239.173 131.802C237.416 129.129 235.284 127.046 235.782 123.773C236.101 121.673 237.251 120.65 236.905 118.289C236.691 116.825 236.008 115.228 235.515 113.836C234.909 112.128 233.655 110.192 236.571 110.107C238.182 110.061 238.26 110.911 239.35 112.337C241.361 114.972 243.676 117.365 245.816 119.891C249.533 124.278 253.475 128.947 257.624 133.008C262.191 137.476 266.134 142.866 269.086 148.586C269.632 149.643 272.947 155.865 271.532 157.085C270.234 158.206 263.009 155.592 261.691 155.287C256.006 153.967 249.552 153.496 244.18 151.098C241.443 149.877 235.403 148.419 233.241 146.529C231.232 144.772 231.322 140.516 232.488 138.04C235.752 140.071 259.349 147.732 257.245 140.484ZM186.203 105.564C182.392 102.121 177.889 99.3608 173.183 97.3148C168.975 95.485 163.747 93.4451 159.065 93.7627C153.232 94.1579 155.669 98.8569 155.69 102.858C155.718 108.168 158.044 115.816 151.705 118.571C149.635 111.219 145.273 93.8348 134.823 103.468C132.153 96.399 122.628 94.0066 115.921 92.7084C117.136 89.1369 120.829 85.9041 123.388 83.2239C126.59 79.8703 129.118 75.9401 132.326 72.6502C138.662 66.1536 150.141 68.2395 158.164 69.8592C160.842 70.3991 168.605 71.0776 169.902 73.0443C170.716 74.2777 170.262 77.291 170.865 78.7993C171.696 80.8769 173.115 82.8032 174.254 84.7223C178.41 91.725 182.637 98.7732 189.749 102.783L186.203 105.564H186.203ZM162.948 143.29C166.711 144.733 169.478 147.148 172.815 149.18C176.861 151.645 181.606 153.954 185.237 156.998C186.566 158.112 187.313 160.035 189.147 160.16C190.742 160.269 193.173 158.415 194.587 157.767C196.96 156.678 199.226 155.028 201.611 154.057C203.57 153.259 204.437 153.423 206.132 151.871C207.084 157.531 224.383 152.241 228.013 152.154C231.37 152.075 235.977 152.473 239.101 153.822C242.078 155.108 244.406 157.938 246.955 159.866C250.448 162.51 253.782 165.184 256.354 168.843C259.883 173.862 254.56 172.441 251.009 172.138C242.905 171.445 235.021 173.376 227.209 175.239C220.225 176.903 213.329 178.9 206.644 181.6C202.885 183.119 198.928 184.515 195.392 186.488C193.528 187.529 190.504 190.077 188.365 189.343C186.404 188.669 184.449 183.046 183.26 180.801C180.95 176.44 178.52 172.154 176.136 167.837C171.631 159.683 167.17 151.596 162.948 143.29H162.948ZM209.247 251.217C206.928 249.886 203.148 250.244 200.584 249.686C197.687 249.055 194.774 248.029 192.011 246.957C189.213 245.873 186.57 244.764 184.013 243.407C182.844 242.787 181.286 242.176 180.205 241.315C179.335 240.621 179.018 239.331 178.215 238.702C176.12 237.06 175.504 238.09 175.224 234.922C174.919 231.48 176.85 229.531 179.254 226.955C181.406 224.65 184.202 222.658 186.906 221.036C188.102 220.319 189.38 219.512 190.6 218.828C192.447 217.791 194.922 216.067 195.891 218.293C193.873 218.808 193.428 221.386 195.249 222.312C196.25 222.82 197.764 222.073 198.892 222.614C200.633 223.449 202.309 225.779 203.799 227.033C208.692 231.151 213.371 232.696 219.775 233.027C233.156 233.717 247.168 232.191 260.291 230.208C263.669 229.697 267.041 230.25 270.45 230.128C273.767 230.009 277.225 229.284 280.486 228.724C286.766 227.645 293.386 226.757 299.569 225.17C307.047 223.25 314.549 220.767 321.57 217.551C328.304 214.465 335.915 209.367 343.479 208.974C340.251 212.134 335.415 213.351 331.532 215.433C328.359 217.133 323.397 218.225 321.392 221.027C320.087 222.851 319.432 226.201 318.446 228.339C317.356 230.706 316.35 233.11 315.341 235.512C314.327 237.929 313.271 240.347 312.447 242.836C311.938 244.38 311.719 247.582 310.515 248.638C308.594 250.323 302.166 251.071 299.578 251.631C294.745 252.679 289.232 252.539 284.303 252.612C282.266 252.642 280.213 252.92 278.267 252.957C275.533 253.009 275.794 252.536 275.833 250.163C275.856 248.739 275.827 246.147 273.921 247.32C272.622 248.12 273.516 251.662 273.756 252.921C262.876 254.005 251.524 254.55 240.695 254.187C230.046 253.83 219.765 252.457 209.247 251.217ZM160.111 226.242C158.191 212.456 155.852 198.44 153.233 184.832C150.587 171.082 147.405 157.456 143.826 143.757L150.917 142.062C151.006 144.948 151.982 147.455 152.398 150.328C152.972 154.294 154.07 158.145 154.727 162.098C155.976 169.611 158.29 176.963 160.328 184.29C162.406 191.76 163.1 199.455 165.009 206.962C166.582 213.147 167.386 219.96 168.264 226.318C170.396 241.743 173.432 257.198 175.743 272.631C177.911 287.1 178.128 301.862 178.003 316.466C177.927 325.383 176.567 334.274 176.637 343.201C176.655 345.409 176.47 347.608 176.355 349.812C176.274 351.367 177.109 355.676 176.401 356.979C175.952 357.803 174.026 358.563 173.344 359.708C172.266 361.52 172.039 363.685 170.307 365.055C168.902 359.392 169.566 351.918 169.872 346.138C170.17 340.569 169.593 334.813 169.479 329.159C169.258 318.067 168.67 307.138 168.101 296.04C167.478 283.87 165.705 271.404 163.973 259.325C162.399 248.343 161.348 237.165 160.111 226.242ZM211.497 53.3543L213.78 53.142C213.666 54.7462 214.005 57.3437 212.875 58.1808C212.018 58.8149 210.283 58.607 209.244 58.8094C205.839 59.4751 201.893 60.0316 198.514 58.8193C197.2 58.3482 198.044 57.6104 196.236 57.9169C194.057 58.2872 194.852 58.632 194.223 59.9906C193.739 61.0394 193.489 62.8243 192.94 64.0832C192.203 65.7683 190.711 68.7838 191.349 70.7295C191.969 72.6208 194.281 73.1924 195.265 75.3343C195.997 76.9268 195.824 79.2417 196.203 80.9955C196.71 83.3348 197.351 85.6652 197.633 88.0476C197.99 91.0493 197.868 94.5709 194.149 95.0365C190.697 95.4689 188.229 94.3603 185.915 91.8464C181.494 87.0476 176.447 80.2738 173.85 74.2373C173.547 73.5322 172.8 72.3553 172.905 71.6003C173.11 70.107 173.2 71.6186 173.673 70.5815C174.125 69.5898 174.834 68.6902 175.251 67.5898C176.752 63.6242 177.813 59.5059 178.415 55.3088C178.687 53.413 178.779 51.5405 178.732 49.6265C178.717 48.9724 178.324 47.0101 178.558 46.5627C178.797 46.1093 180.04 45.9003 180.428 45.4502C181.147 44.616 182.381 42.2606 183.177 41.6365C184.157 40.8687 186.348 41.4768 186.746 39.9502C187.382 37.5079 172.32 33.5295 179.357 30.2701C184.611 27.8366 192.669 40.1381 194.506 30.4586C194.824 28.7817 194.218 26.5063 194.953 24.9691C195.766 23.2712 197.979 22.636 199.524 21.8095C201.497 20.7563 203.489 19.6731 205.406 18.519C206.72 17.728 208.614 15.6277 210.014 15.4353C209.463 18.2862 210.519 21.1122 210.536 23.9575C207.505 23.1371 205.42 23.1199 202.428 24.5783C201.003 25.2723 195.635 29.2119 198.355 31.1066C200.558 29.8039 202.915 28.6748 205.371 27.9081C206.34 27.606 207.55 27.1953 208.58 27.1742C210.972 27.126 210.635 27.376 211.533 29.1798C212.399 30.917 212.213 35.448 214.114 36.5578C216.079 37.7047 214.562 36.0988 216.241 36.4691C217.198 36.6814 218.241 37.3931 219.117 37.795C217.917 39.0977 215.494 40.2878 214.698 41.7351C213.536 43.8454 213.939 48.2096 213.757 50.5184C212.237 49.974 210.636 49.9519 209.095 49.5478C207.646 49.1669 205.637 47.5206 205.486 49.9413C205.317 52.6387 209.581 53.3548 211.496 53.3548L211.497 53.3543ZM191.707 124.377C191.588 122.046 191.459 119.716 191.199 117.395C191.024 115.836 189.544 111.315 190.381 109.946C191.29 108.456 194.34 108.361 195.808 108.004C198.62 107.318 201.318 106.757 204.177 106.304C206.806 105.888 209.284 105.799 211.934 105.679C214.82 105.549 215.535 104.783 216.173 107.963C216.674 110.463 217.346 113.068 217.44 115.627C217.528 118.03 216.803 120.116 219.183 121.736C213.954 121.736 207.144 117.08 202.372 121.243C195.546 127.196 207.425 128.911 210.557 130.225C207.953 131.491 204.088 132.485 202.862 135.375C201.487 138.615 203.483 139.993 206.537 140.252C206.25 141.501 205.15 142.312 204.823 143.814C204.343 146.015 205.899 145.286 203.913 146.989C201.299 149.231 195.917 150.73 192.711 152.158C191.96 152.494 191.201 152.809 190.433 153.103C189.231 154.172 188.345 153.969 187.772 152.492C186.127 151.451 184.663 149.128 183.204 147.777C179.958 144.771 176.375 142.133 172.518 139.962C174.118 139.3 176.03 140.796 177.564 140.068C178.804 139.479 178.337 138.408 179.08 137.606C178.782 136.56 179.096 136.177 180.023 136.458C180.467 136.511 180.918 136.429 181.315 136.223C182.091 135.261 182.44 134.947 182.492 133.462C182.546 131.886 181.634 131.33 181.283 130.069C180.145 129.293 180.171 128.531 181.361 127.784C181.846 126.998 182.121 126.102 182.161 125.18C182.387 121.704 179.216 120.304 176.797 118.466C181.128 117.99 180.963 112.91 177.966 110.689C174.859 108.386 168.282 109.329 164.526 109.849C163.744 109.956 161.634 110.963 160.844 110.321C160.36 109.927 160.702 106.599 160.68 106.011C160.629 104.677 160.304 103.087 160.517 101.76C160.962 98.9816 160.019 100.381 162.019 100.304C166.779 100.119 172.841 104.274 177.029 106.233C181.716 108.426 184.728 108.763 184.777 114.201C184.824 119.349 186.268 124.478 186.898 129.544C187.173 131.757 187.37 143.252 191.42 139.01C192.989 137.365 191.983 134.835 191.867 132.805C191.708 130.013 191.803 127.177 191.707 124.377H191.707ZM453.564 296.713C451.247 297.124 447.472 295.794 444.944 295.654C440.524 295.411 435.971 294.99 431.641 294.07C428.253 293.35 424.392 292.717 422.565 289.437C420.932 286.507 420.354 282.836 419.475 279.637C419.007 277.939 417.802 275.477 417.802 273.72C417.802 271.436 418.111 271.885 420.493 270.635C423.508 269.054 426.441 266.849 429.693 265.952C430.677 265.759 431.661 265.571 432.647 265.386C433.92 264.647 434.64 265.011 434.807 266.476C436.051 267.787 436.78 270.204 437.823 271.738C440.203 275.235 443.028 277.618 446.719 279.635C453.362 283.263 459.551 286.063 466.665 288.436C470.585 289.743 474.201 291.577 478.033 293.018C481.103 294.173 485.34 294.524 487.699 297.094C490.359 299.993 486.269 301.048 483.996 303.008C482.134 304.615 482.097 304.983 479.549 304.203C477.651 303.622 475.969 302.511 474.145 301.758C467.901 299.179 460.343 297.462 453.564 296.713ZM310.858 342.705C313.185 342.201 315.513 341.698 317.84 341.195C315.551 345.468 310.738 351.72 314.192 356.664C315.484 358.512 317.631 359.039 319.55 359.976C321.873 361.11 324.016 362.563 326.211 363.915C335.263 369.489 344.463 375.141 354.001 379.924C351.015 380.888 346.423 381.554 343.349 380.715C339.768 379.736 336.452 377.491 332.776 376.509C326.18 374.749 319.237 373.25 312.536 372.347C307.059 371.609 293.348 373.276 294.014 365.039C294.646 357.217 299.318 349.756 300.708 342.025C304.119 342.782 307.373 342.65 310.858 342.705ZM172.145 217.528C169.493 204.509 167.908 191.27 164.779 178.344C163.218 171.896 162.119 165.359 160.594 158.909C159.885 155.909 159.348 152.879 158.657 149.884C157.957 146.852 156.451 144.054 156.108 140.919C158.642 141.546 159.228 147.352 159.997 149.536C161.406 153.542 162.944 157.393 164.754 161.229C167.634 167.326 170.688 173.209 173.936 179.121C177.361 185.357 180.978 191.353 185.256 197.047C186.662 198.918 188.569 200.384 189.476 202.436C190.9 205.665 191.499 209.513 192.86 212.873C191.901 213.359 189.426 213.48 188.25 213.712C186.064 214.144 184.533 214.527 182.433 215.567C178.734 217.398 175.626 219.569 173.155 222.864C172.534 221.172 172.372 219.318 172.146 217.528H172.145ZM275.247 316.858C275.292 304.32 275.469 291.675 275.264 279.23C275.207 275.774 274.925 272.046 274.424 268.616C274.11 266.461 272.258 261.879 273.475 260.846C274.515 259.962 280.006 260.544 281.354 260.513C283.967 260.452 286.572 260.336 289.191 260.139C289.191 264.786 287.375 270.063 286.532 274.659C285.746 278.947 285.099 283.258 284.45 287.566C283.046 296.893 282.646 306.35 281.12 315.702C279.739 324.182 277.917 332.627 276.911 341.106C276.359 345.76 275.243 350.151 274.376 354.803C273.923 357.228 272.271 367.219 270.191 368.201C269.751 364.617 271.548 360.29 271.87 356.665C272.201 352.924 272.459 349.158 273.066 345.397C273.778 340.981 274.138 336.457 274.411 331.988C274.577 329.252 274.628 326.525 274.865 323.792C275.036 321.808 275.786 318.803 275.247 316.858ZM209.907 149.198C209.82 147.832 213.355 147.887 214.012 146.318C215.347 143.131 212.305 143.705 210.433 143.375C211.1 141.603 223.592 142.248 220.682 137.464C218.663 134.145 211.007 139.225 208.961 136.071C207.616 134 211.276 133.714 212.727 133.507C214.911 133.194 220.057 134.205 219.888 131.371C219.674 127.81 209.671 125.352 206.865 124.306C207.176 121.868 219.215 125.334 220.958 126.322C224.901 128.56 227.923 132.574 228.501 137.035C229.176 142.226 226.543 146.314 221.358 147.588C219.197 148.119 217.599 148.178 215.599 148.976C214.283 149.501 210.023 150.811 209.121 149.486L209.907 149.198ZM139.231 116.911C139.031 114.694 137.165 110.521 139.315 109.065C142.323 107.027 143.57 110.386 144.252 112.403C145.085 114.867 148.59 120.897 145.526 122.432C144.813 122.789 141.435 122.373 140.839 122.138C139.179 122.57 138.644 121.949 139.23 120.271V116.911H139.231ZM212.655 295.922C212.843 289.863 210.131 282.579 208.594 276.646C206.851 269.922 205.933 263.065 204.087 256.416C206.14 256.663 208.213 256.865 210.242 257.277C213.01 257.84 213.06 257.751 212.861 260.467C212.564 264.545 212.953 268.543 213.164 272.62C213.585 280.783 212.558 289.079 213.242 297.19C212.632 297.345 212.437 296.922 212.654 295.922H212.655ZM136.005 137.141C129.353 138.159 122.979 140.268 116.926 143.101C113.59 144.663 109.915 146.341 106.187 146.965C102.045 147.658 97.6521 147.333 93.4221 147.6C91.931 147.694 88.0108 148.419 86.5568 147.542C85.1167 146.673 85.2292 145.2 85.1616 143.445C84.987 138.93 87.0308 134.509 88.8683 130.458C90.4448 126.983 91.6366 124.329 94.0829 121.34C97.2242 117.5 99.9598 113.356 102.902 109.349C105.119 106.327 107.361 103.35 109.622 100.333C111.239 98.1723 111.163 97.429 113.601 97.6707C116.001 97.909 118.418 99.3281 120.679 100.08C124.035 101.196 128.098 101.809 131.159 103.594C133.137 104.748 133.225 104.96 133.202 106.974C133.18 108.85 132.576 111.138 131.454 112.606C129.123 115.652 125.258 117.264 121.942 118.784C120.024 119.663 118.367 120.909 116.658 122.122C114.818 123.429 111.106 124.199 109.698 125.689C105.599 130.029 113.061 129.171 115.146 129.04C119.645 128.758 124.12 128.8 128.653 128.796C133.6 128.794 138.508 128.564 143.386 128.724C146.243 128.819 149.521 127.37 151.371 124.954C152.267 123.785 152.617 122.678 153.788 121.464C155.324 119.875 156.66 118.201 158.528 116.97C161.585 114.958 167.14 113.819 170.779 114.57C169.476 114.752 163.348 116.839 166.045 119.461C166.374 119.78 170.316 119.989 171.173 120.383C172.72 121.093 174.669 122.125 175.575 123.625C172.935 123.182 163.141 122.67 168.137 127.737C169.363 128.981 172.885 130.222 169.889 131.545C169.2 131.848 167.823 131.418 166.936 131.692C165.62 132.1 164.543 133.191 163.309 133.772C159.81 135.423 154.986 136.44 151.334 136.079C146.284 135.578 141.021 136.48 136.005 137.141ZM269.929 289.815C269.757 297.094 270.02 304.416 269.864 311.728C269.698 319.537 268.696 327.19 268.219 334.92C267.79 341.848 266.855 348.645 266.095 355.54C265.658 359.512 265.154 363.309 264.482 367.251C263.852 370.94 263.745 374.19 268.154 375.181C276.584 377.078 277.894 364.95 279.523 359.84C281.956 352.214 283.516 344.208 284.721 336.301C286.964 321.577 289.947 307.058 291.112 292.209C291.828 283.066 292.868 274.016 293.457 264.881C293.573 263.09 293.117 260.333 294.688 259.535C295.634 259.056 298.238 259.053 299.432 258.705C302.757 257.738 305.824 256.314 309.069 254.836C306.766 266.876 306.006 278.856 304.278 291.002C303.362 297.447 301.608 304.125 300.088 310.468C298.514 317.041 298.164 324.118 296.347 330.548C295.547 333.382 294.869 334.537 296.031 337.445C297.455 341.016 296.51 341.871 294.724 345.378C291.437 351.829 288.928 359.443 289.485 366.716C289.94 372.656 294.428 375.765 299.987 377.368C306.942 379.372 314.224 379.135 321.221 381.411C327.316 383.394 333.51 384.859 339.429 387.476C341.816 388.531 344.084 389.783 346.734 389.977C350.369 390.241 352.82 388.131 356.253 387.692C358.399 387.418 361.542 388.442 362.778 386.192C363.757 384.409 362.648 380.518 361.418 379.082C357.962 375.048 351.042 371.533 346.381 369.153C341.01 366.409 335.813 362.975 330.836 359.434C327.819 357.287 324.743 355.227 321.728 353.077C319.735 351.653 318.977 351.644 319.181 349.383C319.343 347.579 320.156 345.83 320.298 343.984C320.407 342.569 319.911 340.641 320.58 339.718C321.072 339.037 322.917 338.556 323.643 338.041C326.297 336.159 326.9 333.832 328.105 330.97C330.843 324.469 333.988 318.152 336.632 311.599C342.308 297.53 345.772 282.737 350.477 268.38C355.284 253.713 359.583 238.317 362.231 223.1C365.773 224.177 369.117 228.948 371.938 231.309C375.75 234.499 379.656 237.584 383.393 240.861C389.52 246.234 395.724 251.459 400.787 257.894C403.227 260.992 405.224 264.328 407.433 267.583C408.708 269.464 409.898 271.593 411.28 273.382C411.501 273.67 411.507 274.259 411.746 274.504C412.273 275.041 413.277 274.325 413.614 274.679C415.697 276.856 415.669 283.038 416.318 285.91C417.212 289.869 418.216 294.421 421.307 297.149C426.081 301.363 434.887 302.016 440.93 302.235C448.685 302.515 456.207 304.677 463.565 306.998C466.996 308.08 470.339 309.346 473.783 310.397C475.765 311.003 478.024 312.209 480.14 311.976C482.692 311.697 484.707 309.55 486.576 307.954C489.565 305.402 492.334 302.886 492.237 298.697C492.13 294.264 489.728 290.918 485.945 288.715C478.63 284.458 470.45 281.729 462.566 278.786C459.545 277.658 456.958 276.41 454.069 274.892C449.987 272.745 445.288 270.994 441.667 268.16C440.599 267.324 436.675 264.762 436.34 263.441C436.296 263.269 437.277 261.252 437.281 260.932C437.291 260.109 436.804 259.217 436.504 258.513C434.618 254.078 431.454 249.808 429.035 245.626C424.604 237.966 420.157 230.266 415.021 223.062C404.779 208.699 393.273 194.635 380.855 182.097C374.801 175.985 369.57 169.052 363.431 163.024C360.999 160.637 358.431 158.692 355.435 157.143C352.094 155.415 348.344 155.076 344.514 154.549C335.235 153.271 327.486 156.016 318.773 158.405C310.538 160.663 302.293 162.568 294.011 164.919C284.915 167.502 275.913 169.979 266.847 172.794C262.002 174.298 257.019 175.221 252.151 176.664C249.807 177.358 240.947 181.71 238.993 180.28C245.148 177.392 251.454 174.759 258.04 173.016C259.98 172.502 261.219 173.071 261.147 170.843C261.107 169.629 259.742 167.989 259.251 166.989C258.074 164.595 256.741 162.256 255.59 159.855C259.765 161.041 270.987 165.143 274.134 160.902C277.426 156.462 274.677 147.758 272.614 143.411C267.227 132.063 258.065 122.594 249.138 114.039C247.208 112.19 243.045 109.775 242.016 107.419C241.703 106.703 242.384 105.651 241.678 104.721C241.258 104.167 239.572 103.789 238.898 103.192C236.443 101.019 234.485 96.4473 232.789 93.5986C231.013 90.6152 229.412 87.3847 227.179 84.7073C223.529 80.3309 219.759 75.6912 213.847 74.6674C210.948 74.1657 207.868 74.4335 205.089 73.4318C201.728 72.2206 198.535 70.3127 195.141 69.0582C195.983 67.3271 196.666 64.5749 198.299 64.3858C199.872 64.2029 202.178 65.5555 203.978 65.5455C206.607 65.5311 208.851 65.1109 211.388 64.6098C214.197 64.0544 215.121 64.1552 216.145 61.1092C217.218 57.9186 216.948 54.2124 216.939 50.8986C216.934 49.2784 216.613 47.2678 216.752 45.6786C216.958 43.2839 217.424 43.1913 219.301 41.6681C221.647 39.7651 224.539 37.2468 221.666 33.9403C220.113 32.1531 216.922 33.5428 215.547 31.6232C214.146 29.6676 214.214 24.7552 213.787 22.4586C218.105 24.5817 216.522 16.646 216.523 14.7369C216.523 11.9581 218.385 6.96142 215.705 4.65045C214.459 3.57729 213.534 4.46476 212.11 3.84835C210.485 3.14436 209.462 1.29847 207.733 0.582841C204.296 -0.840103 200.788 0.873304 197.259 0.590045C193.213 0.266321 189.238 -0.359506 185.168 0.290159C183.241 0.596699 182.429 1.32896 180.798 2.14991C179.229 2.93926 177.637 3.15545 175.933 3.66321C174.417 4.11553 173.088 4.34447 172.064 5.66542C171.254 6.71087 171.584 8.46918 170.766 9.36995C169.96 10.258 168.364 10.1294 167.402 11.1831C166.479 12.1953 165.927 13.8677 165.447 15.1266C164.799 16.8228 164.723 17.4603 163.582 18.8173C162.587 20.0018 161.154 20.9547 160.324 22.3062C158.368 25.4913 158.318 30.0977 158.942 33.6808C159.155 34.9009 160.923 38.0544 160.646 39.0932C160.383 40.0816 158.725 39.8216 157.973 40.4463C157.325 40.9868 156.754 43.3931 156.242 43.5395C155.136 43.8571 153.773 41.6736 152.935 41.346C151.479 40.7767 150.87 40.193 150.063 42.3382C149.466 43.9308 150.298 46.0921 150.737 47.6115C151.294 49.5461 151.911 51.8759 153.389 53.3388C155.126 55.0583 156.517 54.1181 158.434 55.0444C161.307 56.4324 160.459 60.7728 163.994 62.0133C167.363 63.1952 171.074 59.4768 173.622 57.7672C173.094 61.9169 171.108 65.9158 172.061 70.1685C164.313 67.1331 156.651 62.8249 148.207 61.8759C143.901 61.3914 139.552 60.8182 135.487 62.6054C130.73 64.6974 127.816 69.3121 124.595 73.1464C118.544 80.3525 112.334 87.3564 106.526 94.7948C101.199 101.618 96.707 109.524 90.8428 115.912C84.8966 122.391 80.4094 132.902 81.0607 141.874C81.1189 142.684 81.7464 144.524 81.6483 145.397C81.5718 146.066 80.9637 146.914 80.9731 147.453C81.0064 149.269 81.6062 150.313 83.3368 151.321C86.3362 153.068 90.8063 153.952 94.1965 154.386C98.7009 154.962 104.217 155.024 108.724 154.408C113.371 153.773 117.456 151.172 121.73 149.6C125.48 148.219 129.245 147.358 133.184 146.479C135.357 145.993 137.763 144.648 139.105 145.949C140.339 147.145 140.595 153.28 140.882 154.912C143.999 172.594 147.703 189.677 150.983 207.269C154.701 227.209 157.243 247.141 159.829 267.25C162.18 285.53 162.947 304.016 163.473 322.279C163.724 330.991 163.761 339.609 163.707 348.328C163.677 353.21 161.237 369.507 168.475 370.131C172.728 370.499 176.13 364.401 177.27 361.076C178.982 356.079 179.874 350.699 180.147 345.45C180.7 334.824 181.423 324.19 181.853 313.561C182.316 302.044 181.726 290.315 180.779 278.837C179.826 267.281 177.426 255.895 176.69 244.322C178.899 247.474 179.605 248.067 183.285 249.44C187.135 250.877 190.839 252.578 194.724 253.918C196.046 254.374 198.109 254.659 199.192 255.406C201.191 256.783 199.878 255.22 200.517 257.9C201.198 260.764 201.326 264.201 201.508 267.143C202.359 280.952 206.184 294.662 207.949 308.397C208.375 311.713 207.767 325.791 213.474 321.354C217.87 317.938 217.783 307.205 218.408 302.178C219.24 295.477 218.776 288.587 218.645 281.846C218.495 274.168 218.366 266.115 216.534 258.618C219.812 258.057 224.371 259.585 227.67 259.843C230.528 260.064 233.374 260.206 236.215 260.362C242.99 260.734 249.968 261.031 256.857 260.898C258.111 260.874 266.305 259.727 267.352 260.651C267.692 260.952 267.796 265.083 267.859 265.587C268.101 267.486 268.428 269.382 268.672 271.269C269.45 277.304 270.152 283.783 269.929 289.815Z" fill="black"/>
<path fill-rule="evenodd" clip-rule="evenodd" d="M148.255 347.16C143.085 349.181 137.597 349.914 132.384 351.755C127.722 353.401 123.393 355.613 118.803 357.286C118.535 355.156 118.392 351.551 119.178 349.545C120.292 346.703 123.221 346.633 126.106 345.621C133.127 343.158 140.512 342.639 147.482 339.761C146.289 342.058 146.821 345.099 148.255 347.161M59.004 339.73C70.1703 340.057 80.8416 342.656 91.8465 344.263C97.2018 345.045 102.562 345.742 107.922 346.472C109.985 346.752 113.744 346.422 115.244 348.207C116.487 349.687 115.125 354.736 115.676 356.904C113.42 357.071 109.412 354.962 106.962 354.613C103.149 354.071 99.3836 353.311 95.5294 353.069C89.4252 352.684 83.4281 352.357 77.3344 351.678C71.1371 350.987 65.141 349.703 58.8949 349.234C55.8588 349.006 54.6377 349.575 54.4586 346.369C54.3882 345.117 54.2164 343.018 54.5678 341.782C54.0063 340.264 54.5046 339.526 56.0628 339.569C57.0451 339.457 58.0393 339.511 59.0035 339.73M80.601 329.5C77.5811 329.217 74.5489 328.81 71.5212 328.64C70.9076 328.605 67.7939 328.793 67.2856 328.222C66.5656 327.415 67.3677 324.461 67.4996 323.548C67.9486 320.441 68.4447 318.634 71.8344 318.627C74.6947 318.62 77.6559 319.225 80.5051 319.504C93.4391 320.772 106.308 321.307 119.099 323.714C118.32 327.03 117.436 330.451 118.368 333.842C112.231 334.158 105.495 332.978 99.4984 331.766C93.3687 330.529 86.8654 329.914 80.601 329.499M101.072 298.281C105.693 298.302 110.578 300.337 115.137 299.883C115.206 300.731 113.746 300.027 113.343 300.822C112.482 300.824 112.182 301.105 112.445 301.666C112.429 302.049 112.625 302.273 113.033 302.338L113.635 302.39C114.517 302.419 114.662 303.013 114.068 304.175C114.323 305.616 113.941 307.445 113.885 308.89C105.691 307.775 97.7295 306.615 89.4768 306.117C85.581 305.883 81.688 305.883 77.7972 305.563C73.5156 305.21 68.8422 305.967 64.6571 305.165C62.4193 304.736 62.6537 304.766 62.8167 301.856C62.9165 300.088 62.8793 297.99 64.3189 296.7C66.7224 294.547 72.1958 295.791 75.07 295.867C83.7274 296.096 92.5311 296.901 101.072 298.281ZM96.3421 339.833C83.9624 338.71 71.6758 336.247 59.2263 336.247C60.1066 335.368 62.024 335.141 63.1193 334.661C64.3688 334.114 65.5473 332.95 66.7684 332.471C69.2185 331.512 71.7108 332.845 74.2269 333.421C80.2961 334.811 86.5234 334.858 92.6026 336.221C98.887 337.63 105.253 338.929 111.654 339.645C114.702 339.986 117.972 340.678 120.983 339.873L121.717 339.349C121.981 338.228 122.711 337.929 123.91 338.451C125.432 338.161 127.37 338.535 128.902 338.573C128.964 339.185 123.304 341.105 122.224 341.581C119.623 342.726 117.86 343.564 115.082 343.073C108.828 341.969 102.676 340.65 96.3421 339.834M139.89 303.641C139.406 305.526 137.375 304.668 135.626 304.877C133.278 305.154 130.943 305.964 128.669 306.575C124.54 307.684 120.41 308.779 116.298 309.952C116.46 308.291 116.093 304.511 116.97 303.037C117.891 301.493 122.257 300.816 124.289 300.345C129.414 299.159 134.888 299.834 140.093 300.084C140.001 301.268 139.933 302.453 139.89 303.641M90.668 315.439C85.8061 315.027 80.9386 314.708 76.0628 314.536C70.488 314.341 74.54 313.45 74.6575 310.05C81.9846 311.219 89.3759 311.449 96.6802 312.448C102.731 313.277 109.94 315.44 116.112 314.277C119.023 313.73 121.996 313.519 125.093 313.209C128.014 312.917 130.771 311.556 133.657 311.218C136.897 310.838 140.207 312.659 143.429 313.141C144.795 313.345 145.113 314.271 145.758 312.627C146.427 310.921 144.511 309.527 143.757 308.508C142.875 307.316 143.242 309.25 142.752 307.39C142.615 306.869 142.987 305.559 143.055 304.998C143.228 303.578 143.674 302.037 143.743 300.621C143.808 299.319 143.819 297.332 142.406 296.573C141.544 296.11 140.932 296.785 140.181 296.654C134.313 295.634 127.412 295.55 121.461 296.535C115.011 297.602 109.458 294.777 103.1 293.631C95.6414 292.287 88.1049 292.086 80.5816 291.518C74.1487 291.033 62.396 288.515 59.9453 296.731C59.2513 299.059 58.2402 305.468 60.1072 307.449C62.5573 310.05 68.2296 309.22 71.3976 309.896C70.9236 311.244 69.5129 312.161 70.0007 313.765C65.5617 313.976 64.7768 318.169 64.0811 322.083C63.3616 326.134 64.7651 327.744 60.8943 329.853C55.4996 332.792 49.7846 335.761 49.8904 342.761C49.9431 346.281 50.3372 351.589 53.9509 353.415C57.4863 355.202 63.2435 354.9 67.1398 355.548C74.6853 356.805 82.2573 358.279 89.8488 359.033C97.9319 359.837 106.15 360.496 114.247 360.855C118.658 361.052 122.469 361.718 126.73 360.234C130.918 358.774 135.016 357.708 139.338 356.624C143.605 355.556 156.666 354.116 152.86 346.819C152.252 345.652 150.17 344.724 149.834 343.619C149.291 341.838 151.123 340.449 151.046 338.839C150.907 335.895 147.585 335.526 145.291 335.526C149.223 333.067 143.958 330.155 143.989 328.068C144.044 324.39 148.618 322.002 148.877 318.919C149.507 311.416 125.705 319.229 122.041 320.852C124.861 325.033 137.943 321.415 141.839 320.781C141.308 322.177 140.799 323.432 140.646 324.862C140.521 326.026 140.966 327.358 140.559 328.53C139.916 330.384 139.938 330.029 137.661 330.535C135.977 330.908 134.312 331.34 132.634 331.736C130.055 332.344 125.999 333.977 123.444 333.888C121.203 333.81 121.646 334.505 121.235 332.016C121.013 330.678 121.391 329.256 121.616 327.946C122.087 325.2 122.775 322.601 120.377 320.631C118.09 318.751 113.271 317.857 110.466 317.194C104.241 315.724 97.0549 315.363 90.668 315.439Z" fill="black"/>
<path fill-rule="evenodd" clip-rule="evenodd" d="M61.0446 268.567C67.8056 267.434 74.6753 267.156 81.5157 267.499L80.4026 272.576C73.9946 270.926 67.4924 269.958 61.0446 268.567ZM116.021 281.698C118.731 281.5 116.845 282.713 116.176 284.487C115.353 286.667 115.529 289.424 115.34 291.719C107.408 288.694 98.1775 286.924 89.7429 285.905C85.7429 285.423 81.6848 285.284 77.6626 285.078C76.4736 285.017 72.1803 285.515 71.3101 284.715C70.6643 284.12 71.1172 280.838 71.738 280.114C75.1138 276.179 88.1637 279.576 92.8854 279.929C100.626 280.508 108.226 281.891 116.021 281.698ZM104.753 271.153C97.7291 271.827 90.9464 271.763 83.922 272.816C84.4541 268.351 83.8178 267.211 88.8832 266.974C93.397 266.763 97.8965 266.592 102.389 266.595C112.493 266.6 122.572 266.407 132.687 266.407V270.945C123.333 269.987 114.126 271.717 104.753 271.153ZM138.531 287.84C134.098 287.821 129.908 289.493 125.475 289.927C122.821 290.186 123.655 290.515 121.814 291.848C118.947 293.923 118.121 292.818 118.481 289.998C119.698 280.458 131.777 282.597 138.737 282.067C138.279 284.342 139.331 286.271 140.88 287.84H138.531ZM90.6143 275.592C96.9907 275.695 103.375 276.057 109.706 275.925C112.541 275.866 116.212 275.304 118.99 275.787C121.024 276.141 122.727 277.178 124.958 277.563C121.68 279.328 120.018 278.136 116.572 277.734C113.128 277.333 109.634 277.34 106.176 277.131C100.498 276.787 94.4453 275.427 88.851 275.797C88.749 275.009 89.3361 274.94 90.6138 275.592H90.6143ZM141.188 296.252C144.114 296.246 140.089 292.919 139.56 292.588C142.799 292.588 143.584 290.646 142.645 287.525C141.761 284.586 141.107 285.485 143.331 283.037C145.006 281.194 145.259 279.836 143.285 277.775C141.277 275.679 137.208 276.272 135.428 274.541C132.397 271.596 136.308 265.729 132.109 263.473C129.271 261.948 124.695 262.137 121.562 261.815C118.533 261.503 115.397 261.443 112.349 261.402C105.702 261.311 98.7978 262.426 92.1808 263.039C89.7679 263.262 87.0561 264.237 84.6792 264.239C82.2552 264.242 79.7164 263.701 77.2136 263.764C74.304 263.837 71.5013 263.622 68.5007 264.1C66.202 264.466 60.8345 264.658 59.0773 266.367C53.2225 272.062 67.1066 274.678 69.4958 275.317C67.0645 277.981 67.1654 281.502 67.5318 284.855C66.3744 284.855 64.3794 284.351 63.7807 285.649C63.0362 287.261 65.7901 287.68 66.4415 287.868C70.1876 288.95 74.5717 288.653 78.4314 289.046C86.1498 289.832 93.7745 290.285 101.412 291.747C105.134 292.459 108.834 293.341 112.554 294.035C113.196 294.155 113.842 294.251 114.49 294.323C115.486 294.239 115.807 294.863 115.456 296.2C116.489 296.705 120.338 295.448 121.528 295.256C128.342 294.15 134.438 294.609 141.188 296.252ZM3.59521 362.419C7.98988 365.878 12.0752 369.141 16.8346 372.146C13.4699 372.041 2.28148 366.676 3.59521 362.419ZM5.31137 356.782C7.70992 354.721 10.093 354.932 13.0619 354.307C15.7959 353.732 18.4527 352.741 21.1811 352.082C23.3224 351.564 25.4416 350.865 27.5752 350.376C30.5879 349.685 30.885 350.446 33.6561 352.024C43.482 357.624 54.4781 361.476 64.8278 366.022C61.789 368.697 54.9531 368.812 51.1555 369.665C48.3822 370.287 45.7436 371.139 43.0879 372.124C40.6145 373.042 36.63 375.154 34.0219 375.224C31.8207 375.283 30.0308 373.117 28.135 371.95C25.6422 370.415 23.16 368.906 20.6472 367.409C15.3296 364.24 10.3579 360.358 5.31137 356.782ZM49.7181 379.465C50.8528 378.374 54.2669 378.422 55.6893 378.089C58.4908 377.435 61.2513 376.754 64.0906 376.262C68.6975 375.465 75.9752 375.109 76.4758 369.131C76.8926 364.165 70.891 362.986 67.3805 361.303C62.1017 358.771 56.7153 356.435 51.3029 354.202C46.2281 352.11 41.079 350.34 35.9116 348.532C34.9038 348.18 34.0857 348.228 33.2631 347.421C32.614 346.785 32.8141 345.549 32.1029 344.884C30.4743 343.361 28.3612 344.163 26.4033 344.553C21.9582 345.44 17.343 346.604 13.1052 348.248C8.70108 349.957 4.76205 350.314 3.70386 355.307C1.45221 354.251 -0.241241 354.097 0.0281525 357.201C0.106873 358.114 0.769272 359.106 0.92836 360.047C1.16228 361.434 0.752655 362.896 0.98381 364.286C1.82639 369.341 8.64455 373.087 12.8685 375.073C18.0774 377.52 24.7986 381.137 30.6145 381.615C36.8118 382.124 43.5657 379.69 49.7181 379.466" fill="black"/>
<path fill-rule="evenodd" clip-rule="evenodd" d="M128.602 295.586L134.146 295.621C132.302 295.274 130.454 295.27 128.602 295.586ZM236.695 100.089L238.358 102.861C238.17 101.67 237.747 100.649 236.695 100.089ZM103.104 261.779L106.984 261.569L103.104 261.779ZM125.277 295.613L128.602 295.582C127.513 295.278 126.36 295.289 125.277 295.613ZM81.1608 138.337C81.1924 137.229 81.2229 136.119 81.255 135.011C81.2224 136.121 81.1918 137.229 81.1608 138.337ZM269.643 305.742L269.712 302.971C269.688 303.896 269.666 304.819 269.643 305.742ZM239.467 260.564C238.725 260.564 237.985 260.565 237.25 260.567C237.992 260.567 238.73 260.565 239.467 260.564ZM140.243 61.4634L143.015 61.664L140.243 61.4634ZM70.3987 263.902L73.7246 263.88L70.3987 263.902ZM163.76 332.35L163.843 330.133L163.76 332.35ZM162.663 304.08L162.723 301.862L162.663 304.08ZM181.58 316.829L181.5 319.046L181.58 316.829ZM235.032 260.022L233.369 260L235.032 260.022ZM74.2789 288.872L72.6159 288.8L74.2789 288.872ZM180.479 334.567L180.384 336.785L180.479 334.567ZM121.063 330.687L121.175 332.904L121.063 330.687ZM184.952 0.392625L187.302 0.093847C186.526 0.273447 185.675 -0.392295 184.952 0.392625ZM266.294 352.306L266.409 350.088L266.294 352.306ZM87.0283 289.961C86.4712 289.95 85.9158 289.938 85.3653 289.927C85.923 289.939 86.4756 289.95 87.0283 289.961ZM275.226 155.521C275.222 156.262 275.218 157.002 275.215 157.739L275.226 155.521ZM148.701 317.383C148.72 318.123 148.74 318.863 148.761 319.601C149.065 318.841 149.03 318.104 148.701 317.383ZM252.216 261.12H250.553H252.216ZM163.239 314.057L163.256 311.84L163.239 314.057ZM49.8887 379.721L48.2258 379.768L49.8887 379.721ZM69.8443 309.356L68.7357 309.336L69.8443 309.356ZM83.7024 311.01L82.5937 311.007L83.7024 311.01ZM299.577 314.612L299.644 312.949L299.577 314.612ZM72.6159 314.191C73.0976 314.679 73.7168 314.39 74.2789 314.422L72.6159 314.191ZM138.58 296.456C139.312 296.802 140.052 296.849 140.798 296.48L138.58 296.456ZM90.3542 315.453L92.5715 315.434L90.3542 315.453ZM121.396 296.143L123.614 295.941L121.396 296.143ZM163.29 323.481L163.205 321.818L163.29 323.481ZM87.0283 291.514L89.2456 291.7L87.0283 291.514ZM269.654 289.667C269.669 289.112 269.685 288.556 269.701 288.004C269.686 288.561 269.67 289.114 269.654 289.667ZM177.04 246.984L177.171 248.647L177.04 246.984ZM75.9419 263.758C76.6824 264.142 77.4208 264.094 78.1591 263.754L75.9419 263.758ZM163.753 340.665L163.851 339.002L163.753 340.665ZM163.767 345.099L163.837 343.436L163.767 345.099ZM268.58 271.929L268.557 270.266L268.58 271.929ZM110.864 360.359C110.493 360.348 110.122 360.338 109.755 360.328C110.129 360.339 110.496 360.349 110.864 360.359ZM289.588 365.055L289.678 363.392L289.588 365.055ZM169.622 369.756C169.251 369.763 168.879 369.769 168.514 369.778C168.886 369.771 169.254 369.763 169.622 369.756ZM89.2456 263.421L91.4629 263.253L89.2456 263.421ZM85.3653 264.006L87.0283 263.776L85.3653 264.006ZM169.392 322.372L169.299 317.383L169.392 322.372ZM308.203 342.588C309.128 342.599 310.054 342.61 310.974 342.622L308.203 342.588ZM232.261 232.316C233.187 232.301 234.113 232.287 235.032 232.273C234.104 232.288 233.182 232.303 232.261 232.316ZM243.901 231.722L246.119 231.759L243.901 231.722ZM303.768 342.61L305.985 342.599C305.242 342.604 304.505 342.607 303.768 342.61ZM203.99 59.4423L201.219 59.2505L203.99 59.4423ZM191.57 124.479L191.466 121.708L191.57 124.479ZM213.968 133.071L215.631 133.072L213.968 133.071ZM273.835 252.714L271.617 252.895L273.835 252.714ZM275.238 280.798C275.227 280.058 275.214 279.319 275.203 278.581L275.238 280.798ZM211.751 251.25L209.533 251.033L211.751 251.25ZM161.096 238.115L160.964 235.898L161.096 238.115ZM151.33 135.929L149.112 135.757C149.852 135.813 150.59 135.872 151.33 135.929ZM213.03 294.102C211.818 297.106 212.499 294.979 212.467 295.672C213.5 295.811 213.688 295.287 213.03 294.102ZM263.857 230.108C264.412 230.088 264.969 230.068 265.52 230.047C264.96 230.067 264.41 230.087 263.857 230.108ZM150.55 173.814L150.445 171.597L150.551 173.814M275.218 316.829L275.223 314.612L275.218 316.829ZM275.279 300.199L275.162 298.536L275.279 300.199ZM159.999 227.583L159.844 225.92L159.999 227.583ZM282.501 301.862L282.352 303.525L282.501 301.862ZM283.617 297.428L283.453 299.091L283.617 297.428ZM172.733 221.486L172.609 219.823C172.651 220.378 172.692 220.931 172.733 221.486ZM168.852 311.84L168.729 310.177C168.77 310.732 168.812 311.286 168.852 311.84ZM172.204 219.268C172.146 218.713 172.087 218.159 172.029 217.605L172.204 219.268ZM451.218 296.151L449 295.933L451.218 296.151ZM216.185 232.289L217.294 232.301L216.185 232.289ZM275.218 295.21L275.223 293.547L275.218 295.21ZM167.639 294.102C167.836 293.529 167.932 292.964 167.552 292.439L167.639 294.102ZM177.082 283.57L177.129 285.233C177.113 284.677 177.097 284.123 177.082 283.57ZM176.603 338.447L176.499 340.11L176.603 338.447M135.809 136.833L134.146 137.07L135.809 136.833ZM138.026 136.885C137.282 136.929 136.465 136.572 135.809 137.096L138.026 136.885ZM232.815 253.919L230.598 253.908L232.815 253.919ZM216.185 136.301L213.968 136.493L216.185 136.301ZM252.771 253.769L250.553 253.779C251.295 254.136 252.034 254.171 252.771 253.769ZM192.084 137.229L192.06 135.566L192.084 137.229ZM238.912 254.003C238.173 253.944 237.434 253.884 236.695 253.824C237.435 253.884 238.173 253.944 238.912 254.003ZM176.016 351.751C176.003 352.306 175.99 352.861 175.979 353.414C175.99 352.858 176.003 352.305 176.016 351.751ZM174.057 123.199L171.84 122.988L174.057 123.199ZM164.432 264.723C164.381 264.168 164.33 263.613 164.28 263.06L164.432 264.723ZM138.921 116.719C138.878 116.163 138.836 115.609 138.794 115.056L138.921 116.719ZM191.534 69.0471C191.523 69.6014 191.514 70.1574 191.502 70.71L191.534 69.0471ZM211.196 58.7001L208.979 58.8841L211.196 58.7001ZM322.061 373.756L319.843 373.538L322.061 373.756ZM346.451 380.975C345.711 380.594 344.973 380.702 344.234 380.978L346.451 380.975ZM58.7579 348.802L54.8776 348.603L58.7579 348.802ZM58.7579 339.253L60.9752 339.304L58.7579 339.253ZM69.8443 328.259L67.0727 328.048C67.9347 328.59 68.9203 328.189 69.8443 328.259ZM80.3764 329.402L77.6048 329.201L80.3764 329.402ZM95.8974 339.365L93.6801 339.192L95.8974 339.365ZM92.0172 339.367L89.7999 339.191C90.5388 339.25 91.2783 339.308 92.0172 339.367ZM89.2456 338.823L87.0283 338.627L89.2456 338.823ZM85.3653 319.873C85.9213 319.877 86.4773 319.88 87.0283 319.883C86.4701 319.878 85.9174 319.875 85.3653 319.873ZM71.5073 350.411L69.29 350.224C69.9796 350.708 70.7589 350.429 71.5073 350.411ZM92.5715 306.126L90.3542 305.914L92.5715 306.126ZM100.886 298.256C101.258 298.259 101.629 298.261 101.995 298.262L100.886 298.256ZM114.19 299.801C114.376 300.256 115.356 300.198 115.296 299.73L114.19 299.801ZM140 301.862L139.932 303.525L140 301.862ZM64.3011 304.8C63.7468 304.791 63.1924 304.782 62.6381 304.772C63.1858 305.164 63.7412 305.109 64.3011 304.8ZM85.3653 296.588C85.7367 296.594 86.1076 296.599 86.474 296.604L85.3653 296.588ZM99.7777 331.622L97.5604 331.415L99.7777 331.622ZM108.647 332.724L106.43 332.531L108.647 332.724ZM65.4097 349.361L63.1924 349.153L65.4097 349.361ZM92.0172 352.699C91.2766 352.428 90.5366 352.335 89.7999 352.705L92.0172 352.699ZM93.1924 276.29L94.2345 275.93C92.9413 275.913 91.6475 275.898 90.3542 275.882C90.3514 275.882 93.0432 276.302 93.1924 276.29ZM103.104 266.664L105.875 266.662C104.948 266.663 104.025 266.664 103.104 266.664ZM138.026 287.853C137.104 287.484 136.18 287.556 135.254 287.843L138.026 287.853ZM82.0394 278.848L83.7024 278.868L82.0394 278.848ZM93.6801 271.561C92.7556 271.622 91.8315 271.682 90.9085 271.743C91.8321 271.682 92.7567 271.622 93.6801 271.561ZM105.321 277.293C104.397 277.228 103.473 277.163 102.549 277.097C103.473 277.163 104.397 277.228 105.321 277.293ZM104.212 271.006L101.995 271.188L104.212 271.006ZM114.744 281.641L115.853 281.618L114.744 281.641ZM103.104 276.121L104.212 276.052C103.84 276.074 103.472 276.098 103.104 276.121ZM110.31 276.101C110.681 276.091 111.053 276.08 111.418 276.071L110.31 276.101ZM90.3542 275.586C90.3542 275.73 88.6846 275.001 88.6913 275.678L90.3542 275.586ZM96.4518 266.662L97.5604 266.664L96.4518 266.662ZM293.236 240.375C292.636 237.925 292.799 236.008 290.662 237.574C289.488 238.433 287.554 242.791 287.701 244.268C287.881 246.089 288.712 246.814 290.426 246.235C292.396 245.568 293.177 242.207 293.236 240.375ZM185.237 225.503C180.273 225.503 182.439 230.786 186.577 230.904C188.479 230.959 191.214 230.584 190.598 228.038C190.269 226.68 185.445 224.848 185.237 225.503ZM238.483 235.898C234.9 237.632 239.941 245.245 243.198 243.361C247.368 240.948 239.957 236.984 238.483 235.898ZM247.203 243.104C246.03 244.384 240.744 248.721 243.657 250.466C247.241 252.611 249.968 245.53 247.203 243.104ZM307.273 239.778C308.438 237.524 306.835 231.624 303.274 232.702C299.692 233.788 305.301 239.18 307.273 239.778ZM228.192 241.078C225.868 240.142 226.311 242.91 225.959 243.803C225.561 244.818 223.515 247.289 224.028 248.369C224.789 249.971 226.611 248.949 227.599 247.91C229.333 246.086 229.21 243.16 228.192 241.078ZM263.613 243.643C265.55 243.643 270.175 238.058 267.457 237.121C264.085 235.958 261.266 244.054 263.613 243.643ZM196.669 234.789C194.895 235.227 192.546 240.25 195.22 240.833C198.18 241.478 198.709 236.178 196.669 234.789ZM207.425 244.213C208.817 241.533 209.16 235.797 205.762 240.401C205.026 241.398 204.267 240.995 204.645 242.64C204.975 244.076 206.294 244.213 207.425 244.213ZM280.717 230.355C279.299 232.489 279.717 239.183 282.681 235.224C283.941 233.541 283.073 230.435 280.717 230.355ZM209.429 29.1902C206.678 28.4796 206.018 34.9668 207.622 35.6819C209.869 36.683 209.588 30.275 209.429 29.1902ZM35.3899 358.763C37.9436 358.614 41.5207 357.917 37.6526 356.105C35.1987 354.956 31.5496 354.876 28.9581 355.348C27.1715 355.672 24.4914 357.153 27.2175 359.073C28.8129 360.195 33.4498 358.818 35.3899 358.763M38.2519 363.392L40.4653 363.143C39.8732 362.068 38.1532 361.843 38.2519 363.392ZM34.922 358.656L32.7047 358.705L34.922 358.656Z" fill="black"/>
</svg>
