<svg id="visual" viewBox="0 0 960 540" width="960" height="540" xmlns="http://www.w3.org/2000/svg" xmlns:xlink="http://www.w3.org/1999/xlink" version="1.1"><rect x="0" y="0" width="960" height="540" fill="#001220"></rect><path d="M0 456L26.7 455.8C53.3 455.7 106.7 455.3 160 454.3C213.3 453.3 266.7 451.7 320 455.8C373.3 460 426.7 470 480 474C533.3 478 586.7 476 640 472.3C693.3 468.7 746.7 463.3 800 460.2C853.3 457 906.7 456 933.3 455.5L960 455L960 541L933.3 541C906.7 541 853.3 541 800 541C746.7 541 693.3 541 640 541C586.7 541 533.3 541 480 541C426.7 541 373.3 541 320 541C266.7 541 213.3 541 160 541C106.7 541 53.3 541 26.7 541L0 541Z" fill="#7663f2"></path><path d="M0 493L26.7 494.8C53.3 496.7 106.7 500.3 160 499.3C213.3 498.3 266.7 492.7 320 488.2C373.3 483.7 426.7 480.3 480 481.2C533.3 482 586.7 487 640 491.5C693.3 496 746.7 500 800 497C853.3 494 906.7 484 933.3 479L960 474L960 541L933.3 541C906.7 541 853.3 541 800 541C746.7 541 693.3 541 640 541C586.7 541 533.3 541 480 541C426.7 541 373.3 541 320 541C266.7 541 213.3 541 160 541C106.7 541 53.3 541 26.7 541L0 541Z" fill="#4c3d94"></path><path d="M0 517L26.7 518.2C53.3 519.3 106.7 521.7 160 520.5C213.3 519.3 266.7 514.7 320 511.7C373.3 508.7 426.7 507.3 480 510.3C533.3 513.3 586.7 520.7 640 521C693.3 521.3 746.7 514.7 800 512.8C853.3 511 906.7 514 933.3 515.5L960 517L960 541L933.3 541C906.7 541 853.3 541 800 541C746.7 541 693.3 541 640 541C586.7 541 533.3 541 480 541C426.7 541 373.3 541 320 541C266.7 541 213.3 541 160 541C106.7 541 53.3 541 26.7 541L0 541Z" fill="#231b40"></path></svg>