<svg width="374" height="97" viewBox="0 0 374 97" fill="none" xmlns="http://www.w3.org/2000/svg">
<path d="M4.27234 0H76.124C86.849 0 95.5434 8.69435 95.5434 19.4194V92.8246H23.6917C12.9667 92.8246 4.27234 84.1303 4.27234 73.4052V0Z" fill="#321DC1"/>
<path d="M0 3.88388H71.8517C82.5767 3.88388 91.2711 12.5782 91.2711 23.3033V96.7085H19.4194C8.69435 96.7085 0 88.0141 0 77.2891V3.88388Z" fill="#1C0E7B"/>
<path d="M109.867 31.2264H125.179C128.824 31.2264 131.608 32.0218 133.531 33.6126C135.486 35.2034 136.464 37.5068 136.464 40.5228C136.464 42.1799 135.967 43.6713 134.972 44.997C133.978 46.3227 132.536 47.2341 130.647 47.7313C132.702 48.129 134.359 49.0901 135.619 50.6147C136.878 52.1061 137.508 54.0615 137.508 56.4809C137.508 59.4305 136.464 61.7671 134.376 63.4905C132.321 65.1807 129.504 66.0259 125.924 66.0259H109.867V31.2264ZM125.03 45.2456C126.355 45.2456 127.416 44.8645 128.211 44.1022C129.04 43.3068 129.454 42.2628 129.454 40.9702C129.454 39.6777 129.04 38.6502 128.211 37.888C127.416 37.0926 126.355 36.6948 125.03 36.6948H116.877V45.2456H125.03ZM124.433 60.5574C126.488 60.5574 128.012 60.1597 129.007 59.3643C130.001 58.5357 130.498 57.2929 130.498 55.6357C130.498 53.9786 130.001 52.7523 129.007 51.9569C128.012 51.1284 126.488 50.7141 124.433 50.7141H116.877V60.5574H124.433Z" fill="white"/>
<path d="M143.948 31.2264H150.958V66.0259H143.948V31.2264Z" fill="white"/>
<path d="M159.386 31.2264H174.698C178.344 31.2264 181.128 32.0218 183.05 33.6126C185.005 35.2034 185.983 37.5068 185.983 40.5228C185.983 42.1799 185.486 43.6713 184.492 44.997C183.497 46.3227 182.056 47.2341 180.167 47.7313C182.221 48.129 183.879 49.0901 185.138 50.6147C186.397 52.1061 187.027 54.0615 187.027 56.4809C187.027 59.4305 185.983 61.7671 183.895 63.4905C181.84 65.1807 179.023 66.0259 175.444 66.0259H159.386V31.2264ZM174.549 45.2456C175.875 45.2456 176.935 44.8645 177.731 44.1022C178.559 43.3068 178.974 42.2628 178.974 40.9702C178.974 39.6777 178.559 38.6502 177.731 37.888C176.935 37.0926 175.875 36.6948 174.549 36.6948H166.396V45.2456H174.549ZM173.952 60.5574C176.007 60.5574 177.532 60.1597 178.526 59.3643C179.52 58.5357 180.017 57.2929 180.017 55.6357C180.017 53.9786 179.52 52.7523 178.526 51.9569C177.532 51.1284 176.007 50.7141 173.952 50.7141H166.396V60.5574H173.952Z" fill="white"/>
<path d="M204.106 66.0259C199.864 66.0259 196.815 65.0979 194.959 63.2419C193.136 61.3859 192.225 58.7014 192.225 55.1883V31.2264H199.234V55.1883C199.234 57.0111 199.632 58.37 200.427 59.2648C201.223 60.1265 202.449 60.5574 204.106 60.5574H215.242V66.0259H204.106Z" fill="white"/>
<path d="M220.703 31.2264H227.713V66.0259H220.703V31.2264Z" fill="white"/>
<path d="M248.868 66.6224C244.261 66.6224 240.732 65.5619 238.279 63.4408C235.86 61.2865 234.65 58.1214 234.65 53.9455V43.3068C234.65 39.1308 235.86 35.9823 238.279 33.8612C240.732 31.7069 244.261 30.6298 248.868 30.6298C253.475 30.6298 256.988 31.7069 259.407 33.8612C261.86 35.9823 263.086 39.1308 263.086 43.3068V53.9455C263.086 58.1214 261.86 61.2865 259.407 63.4408C256.988 65.5619 253.475 66.6224 248.868 66.6224ZM248.868 61.1539C251.188 61.1539 252.961 60.5408 254.187 59.3145C255.447 58.0551 256.077 56.2654 256.077 53.9455V43.3068C256.077 40.9868 255.447 39.2137 254.187 37.9874C252.961 36.728 251.188 36.0983 248.868 36.0983C246.548 36.0983 244.758 36.728 243.499 37.9874C242.273 39.2137 241.66 40.9868 241.66 43.3068V53.9455C241.66 56.2654 242.273 58.0551 243.499 59.3145C244.758 60.5408 246.548 61.1539 248.868 61.1539Z" fill="white"/>
<path d="M270.028 31.2264H273.657C275.48 31.2264 276.938 31.4749 278.032 31.9721C279.126 32.4692 280.07 33.2646 280.866 34.3583C281.661 35.4189 282.589 37.0263 283.65 39.1805L286.533 44.997L289.417 39.1805C290.477 37.0263 291.405 35.4189 292.201 34.3583C292.996 33.2646 293.94 32.4692 295.034 31.9721C296.128 31.4749 297.586 31.2264 299.409 31.2264H303.038V66.0259H296.675V38.5343C296.277 38.5343 295.946 38.7165 295.68 39.0811C295.415 39.4457 295.018 40.0919 294.487 41.0199L286.533 55.7849L278.579 41.0199C278.049 40.0919 277.651 39.4457 277.386 39.0811C277.121 38.7165 276.789 38.5177 276.392 38.4845V66.0259H270.028V31.2264Z" fill="white"/>
<path d="M331.225 57.9226H317.603L315.267 66.0259H308.257L316.758 38.2857C317.355 36.2971 317.985 34.756 318.647 33.6623C319.31 32.5686 320.089 31.7898 320.984 31.3258C321.912 30.8618 323.055 30.6298 324.414 30.6298C325.773 30.6298 326.9 30.8618 327.795 31.3258C328.69 31.7898 329.468 32.5686 330.131 33.6623C330.827 34.756 331.473 36.2971 332.07 38.2857L340.571 66.0259H333.561L331.225 57.9226ZM329.684 52.7026L325.508 38.3851C325.276 37.5234 324.911 37.0926 324.414 37.0926C323.917 37.0926 323.552 37.5234 323.32 38.3851L319.145 52.7026H329.684Z" fill="white"/>
<path d="M374 66.0259H366.593L364.306 58.3203C363.842 56.7294 363.378 55.5032 362.914 54.6415C362.45 53.7466 361.82 53.0672 361.025 52.6032C360.229 52.1392 359.169 51.9072 357.843 51.9072H352.822V66.0259H345.812V31.2264H359.881C364.124 31.2264 367.256 32.0715 369.277 33.7617C371.299 35.4189 372.31 38.0205 372.31 41.5668C372.31 43.8536 371.697 45.693 370.47 47.085C369.277 48.477 367.62 49.3718 365.499 49.7695C367.189 50.3329 368.465 51.3106 369.327 52.7026C370.189 54.0946 370.984 55.9837 371.713 58.37L374 66.0259ZM360.08 46.4387C361.605 46.4387 362.848 46.041 363.809 45.2456C364.803 44.417 365.3 43.1908 365.3 41.5668C365.3 39.9428 364.803 38.7331 363.809 37.9377C362.848 37.1091 361.605 36.6948 360.08 36.6948H352.822V46.4387H360.08Z" fill="white"/>
<path d="M25.2452 22.5265H49.1699C54.8663 22.5265 59.2162 23.7693 62.2197 26.255C65.275 28.7407 66.8027 32.3397 66.8027 37.0522C66.8027 39.6414 66.0259 41.9718 64.4724 44.0432C62.9188 46.1146 60.6662 47.5386 57.7144 48.3154C60.9251 48.9368 63.5144 50.4386 65.4822 52.8207C67.45 55.151 68.4339 58.2064 68.4339 61.9867C68.4339 66.5955 66.8027 70.2464 63.5402 72.9392C60.3296 75.5802 55.9279 76.9007 50.3351 76.9007H25.2452V22.5265ZM48.9369 44.4315C51.0083 44.4315 52.6654 43.836 53.9082 42.645C55.2029 41.4021 55.8502 39.7709 55.8502 37.7513C55.8502 35.7317 55.2029 34.1263 53.9082 32.9353C52.6654 31.6924 51.0083 31.071 48.9369 31.071H36.1978V44.4315H48.9369ZM48.0047 68.3562C51.2154 68.3562 53.5975 67.7348 55.1511 66.492C56.7046 65.1973 57.4814 63.2554 57.4814 60.6661C57.4814 58.0769 56.7046 56.1608 55.1511 54.918C53.5975 53.6234 51.2154 52.9761 48.0047 52.9761H36.1978V68.3562H48.0047Z" fill="white"/>
</svg>
