<svg width="219" height="57" viewBox="0 0 219 57" fill="none" xmlns="http://www.w3.org/2000/svg">
<path d="M2.50195 0H44.5755C50.8557 0 55.9468 5.09108 55.9468 11.3712V54.3545H13.8732C7.59303 54.3545 2.50195 49.2634 2.50195 42.9833V0Z" fill="#321DC1"/>
<path d="M0 2.27441H42.0736C48.3537 2.27441 53.4448 7.36549 53.4448 13.6456V56.6289H11.3712C5.09107 56.6289 0 51.5378 0 45.2577V2.27441Z" fill="#1C0E7B"/>
<path d="M64.334 18.2849H73.3C75.4347 18.2849 77.0649 18.7506 78.1905 19.6822C79.3355 20.6137 79.908 21.9625 79.908 23.7285C79.908 24.6989 79.6169 25.5722 79.0347 26.3484C78.4525 27.1247 77.6083 27.6584 76.5021 27.9495C77.7053 28.1824 78.6757 28.7452 79.4132 29.6379C80.1506 30.5112 80.5193 31.6562 80.5193 33.0729C80.5193 34.8002 79.908 36.1683 78.6854 37.1775C77.4822 38.1673 75.8326 38.6621 73.7366 38.6621H64.334V18.2849ZM73.2126 26.494C73.9889 26.494 74.6099 26.2708 75.0757 25.8245C75.5609 25.3587 75.8035 24.7474 75.8035 23.9905C75.8035 23.2336 75.5609 22.632 75.0757 22.1857C74.6099 21.7199 73.9889 21.487 73.2126 21.487H68.4385V26.494H73.2126ZM72.8633 35.46C74.0666 35.46 74.9593 35.2271 75.5415 34.7613C76.1237 34.2762 76.4148 33.5484 76.4148 32.5781C76.4148 31.6077 76.1237 30.8897 75.5415 30.4239C74.9593 29.9387 74.0666 29.6961 72.8633 29.6961H68.4385V35.46H72.8633Z" fill="#30333A"/>
<path d="M84.2905 18.2849H88.3951V38.6621H84.2905V18.2849Z" fill="#30333A"/>
<path d="M93.3306 18.2849H102.297C104.431 18.2849 106.062 18.7506 107.187 19.6822C108.332 20.6137 108.905 21.9625 108.905 23.7285C108.905 24.6989 108.614 25.5722 108.031 26.3484C107.449 27.1247 106.605 27.6584 105.499 27.9495C106.702 28.1824 107.672 28.7452 108.41 29.6379C109.147 30.5112 109.516 31.6562 109.516 33.0729C109.516 34.8002 108.905 36.1683 107.682 37.1775C106.479 38.1673 104.829 38.6621 102.733 38.6621H93.3306V18.2849ZM102.209 26.494C102.986 26.494 103.607 26.2708 104.072 25.8245C104.558 25.3587 104.8 24.7474 104.8 23.9905C104.8 23.2336 104.558 22.632 104.072 22.1857C103.607 21.7199 102.986 21.487 102.209 21.487H97.4352V26.494H102.209ZM101.86 35.46C103.063 35.46 103.956 35.2271 104.538 34.7613C105.12 34.2762 105.411 33.5484 105.411 32.5781C105.411 31.6077 105.12 30.8897 104.538 30.4239C103.956 29.9387 103.063 29.6961 101.86 29.6961H97.4352V35.46H101.86Z" fill="#30333A"/>
<path d="M119.517 38.6621C117.033 38.6621 115.247 38.1187 114.16 37.0319C113.093 35.9452 112.559 34.3732 112.559 32.3161V18.2849H116.664V32.3161C116.664 33.3834 116.897 34.1791 117.363 34.7031C117.828 35.2077 118.546 35.46 119.517 35.46H126.037V38.6621H119.517Z" fill="#30333A"/>
<path d="M129.235 18.2849H133.34V38.6621H129.235V18.2849Z" fill="#30333A"/>
<path d="M145.728 39.0114C143.03 39.0114 140.963 38.3904 139.527 37.1484C138.11 35.8869 137.402 34.0336 137.402 31.5883V25.3587C137.402 22.9134 138.11 21.0698 139.527 19.8277C140.963 18.5663 143.03 17.9355 145.728 17.9355C148.425 17.9355 150.482 18.5663 151.899 19.8277C153.335 21.0698 154.053 22.9134 154.053 25.3587V31.5883C154.053 34.0336 153.335 35.8869 151.899 37.1484C150.482 38.3904 148.425 39.0114 145.728 39.0114ZM145.728 35.8093C147.086 35.8093 148.124 35.4503 148.843 34.7322C149.58 33.9948 149.949 32.9468 149.949 31.5883V25.3587C149.949 24.0002 149.58 22.9619 148.843 22.2439C148.124 21.5064 147.086 21.1377 145.728 21.1377C144.369 21.1377 143.321 21.5064 142.584 22.2439C141.866 22.9619 141.507 24.0002 141.507 25.3587V31.5883C141.507 32.9468 141.866 33.9948 142.584 34.7322C143.321 35.4503 144.369 35.8093 145.728 35.8093Z" fill="#30333A"/>
<path d="M158.118 18.2849H160.243C161.311 18.2849 162.165 18.4304 162.805 18.7215C163.445 19.0126 163.999 19.4784 164.464 20.1188C164.93 20.7398 165.473 21.6811 166.094 22.9425L167.783 26.3484L169.471 22.9425C170.092 21.6811 170.636 20.7398 171.101 20.1188C171.567 19.4784 172.12 19.0126 172.761 18.7215C173.401 18.4304 174.255 18.2849 175.322 18.2849H177.448V38.6621H173.721V22.5641C173.489 22.5641 173.294 22.6708 173.139 22.8843C172.984 23.0978 172.751 23.4762 172.441 24.0196L167.783 32.6654L163.125 24.0196C162.815 23.4762 162.582 23.0978 162.427 22.8843C162.271 22.6708 162.077 22.5544 161.844 22.535V38.6621H158.118V18.2849Z" fill="#30333A"/>
<path d="M193.953 33.9171H185.976L184.608 38.6621H180.504L185.482 22.4185C185.831 21.2541 186.2 20.3517 186.588 19.7113C186.976 19.0709 187.432 18.6148 187.956 18.3431C188.499 18.0714 189.169 17.9355 189.965 17.9355C190.76 17.9355 191.42 18.0714 191.944 18.3431C192.468 18.6148 192.924 19.0709 193.312 19.7113C193.72 20.3517 194.098 21.2541 194.448 22.4185L199.425 38.6621H195.321L193.953 33.9171ZM193.05 30.8605L190.605 22.4768C190.469 21.9722 190.256 21.7199 189.965 21.7199C189.673 21.7199 189.46 21.9722 189.324 22.4768L186.879 30.8605H193.05Z" fill="#30333A"/>
<path d="M219 38.6621H214.663L213.324 34.15C213.052 33.2185 212.78 32.5004 212.508 31.9959C212.237 31.4719 211.868 31.074 211.402 30.8023C210.937 30.5306 210.315 30.3948 209.539 30.3948H206.599V38.6621H202.495V18.2849H210.733C213.217 18.2849 215.051 18.7797 216.235 19.7695C217.418 20.7398 218.01 22.2633 218.01 24.3398C218.01 25.6789 217.651 26.756 216.933 27.5711C216.235 28.3862 215.264 28.9102 214.022 29.143C215.012 29.473 215.759 30.0455 216.264 30.8605C216.768 31.6756 217.234 32.7818 217.661 34.1791L219 38.6621ZM210.849 27.1926C211.742 27.1926 212.47 26.9598 213.032 26.494C213.615 26.0088 213.906 25.2908 213.906 24.3398C213.906 23.3889 213.615 22.6805 213.032 22.2148C212.47 21.7296 211.742 21.487 210.849 21.487H206.599V27.1926H210.849Z" fill="#30333A"/>
<path d="M14.7832 13.1904H28.7926C32.1281 13.1904 34.6753 13.9182 36.434 15.3737C38.2231 16.8292 39.1176 18.9367 39.1176 21.6961C39.1176 23.2123 38.6628 24.5768 37.7531 25.7898C36.8434 27.0027 35.5243 27.8366 33.7959 28.2914C35.676 28.6553 37.1921 29.5347 38.3444 30.9296C39.4967 32.2941 40.0728 34.0832 40.0728 36.2968C40.0728 38.9956 39.1176 41.1334 37.2073 42.7102C35.3272 44.2566 32.7498 45.0299 29.4748 45.0299H14.7832V13.1904ZM28.6561 26.0172C29.869 26.0172 30.8394 25.6685 31.5671 24.971C32.3252 24.2433 32.7043 23.2881 32.7043 22.1055C32.7043 20.9229 32.3252 19.9828 31.5671 19.2854C30.8394 18.5577 29.869 18.1938 28.6561 18.1938H21.1966V26.0172H28.6561ZM28.1103 40.0265C29.9903 40.0265 31.3852 39.6627 32.2949 38.9349C33.2046 38.1768 33.6595 37.0397 33.6595 35.5235C33.6595 34.0074 33.2046 32.8854 32.2949 32.1576C31.3852 31.3996 29.9903 31.0205 28.1103 31.0205H21.1966V40.0265H28.1103Z" fill="white"/>
</svg>
