<svg width="155" height="23" viewBox="0 0 155 23" fill="none" xmlns="http://www.w3.org/2000/svg">
<path d="M14.4095 20.1042L11.586 23H0.389445V5.72504L3.21292 2.8958H0V0H9.1844L12.0079 2.8958V6.98987L10.0282 9.02026H12.0079L14.4095 11.4834V20.1042ZM8.79496 9.02026V2.8958H3.60236V11.4834L5.97149 9.02026H8.79496ZM11.1965 20.1042V11.4834H3.60236V20.1042H11.1965Z" fill="#30333A"/>
<path d="M23.0302 23H19.8173V0H23.0302V23Z" fill="#30333A"/>
<path d="M43.472 20.1042L40.6485 23H29.452V5.72504L32.2755 2.8958H29.0626V0H38.247L41.0704 2.8958V6.98987L39.0908 9.02026H41.0704L43.472 11.4834V20.1042ZM37.8575 9.02026V2.8958H32.6649V11.4834L35.034 9.02026H37.8575ZM40.2591 20.1042V11.4834H32.6649V20.1042H40.2591Z" fill="#30333A"/>
<path d="M62.5104 23H48.8799V0H52.0928V20.1042H59.2975V17.2417L62.5104 13.9797V23Z" fill="#30333A"/>
<path d="M69.9043 23H66.6914V0H69.9043V23Z" fill="#30333A"/>
<path d="M89.9566 20.1042L87.1332 23H78.7277L75.9366 20.1042V2.8958L78.7277 0H87.1332L89.9566 2.8958V20.1042ZM86.7437 20.1042V2.8958H79.1496V20.1042H86.7437Z" fill="#30333A"/>
<path d="M114.346 22.9667H111.133V4.95948L113.145 2.92909H110.517L106.2 11.4834H103.864L99.7095 2.92909H97.1132L99.1253 4.95948V22.9667H95.9124V0H101.657L104.999 7.55572H105.389L108.797 0H114.346V22.9667Z" fill="#30333A"/>
<path d="M134.553 23H131.372V14.3792H123.746V23H120.533V2.8958L123.356 0H134.553V23ZM133.384 2.8958H123.746V13.9797L126.18 11.4834H131.372V4.95948L133.384 2.8958Z" fill="#30333A"/>
<path d="M155 23H151.787L151.852 20.67L145.426 14.0463L147.601 11.4834H151.787V2.8958H144.193V23H140.98V5.72504L143.803 2.8958H140.591V0H152.177L155 2.8958V11.0839L152.177 13.9797H149.548V14.4124L155 19.9378V23Z" fill="#30333A"/>
</svg>
