<svg width="34" height="34" viewBox="0 0 34 34" fill="none" xmlns="http://www.w3.org/2000/svg">
<circle cx="17" cy="17" r="17" fill="#3B3B3B"/>
<path d="M25.3175 9.49315C23.7613 8.79043 22.1192 8.28889 20.4321 8.00103C20.4168 7.99849 20.4011 8.00068 20.3871 8.00729C20.3732 8.01389 20.3616 8.0246 20.3541 8.03792C20.1426 8.4069 19.9086 8.88951 19.7451 9.26734C17.9265 8.99579 16.0767 8.99579 14.2582 9.26734C14.0758 8.84645 13.8695 8.43599 13.6402 8.03792C13.6325 8.02474 13.6209 8.01416 13.607 8.00758C13.5931 8.00099 13.5774 7.99871 13.5622 8.00103C11.8747 8.28735 10.2322 8.78915 8.67671 9.49315C8.6634 9.49815 8.65227 9.50754 8.64522 9.51972C5.53425 14.0935 4.68076 18.5551 5.09925 22.9607C5.10075 22.9813 5.11425 23.002 5.13075 23.0153C6.94232 24.3356 8.9686 25.3437 11.1232 25.9966C11.1384 26.0013 11.1547 26.0011 11.1699 25.9961C11.185 25.991 11.198 25.9814 11.2072 25.9685C11.6692 25.3487 12.0802 24.6948 12.4342 24.0071C12.4416 23.9929 12.4441 23.9768 12.4414 23.9611C12.4387 23.9454 12.4309 23.931 12.4192 23.92C12.4114 23.9128 12.4022 23.9073 12.3922 23.9038C11.7459 23.6594 11.12 23.3658 10.5202 23.0256C10.5034 23.0163 10.491 23.0009 10.4854 22.9828C10.4798 22.9647 10.4815 22.9451 10.4902 22.9282C10.4953 22.9172 10.503 22.9076 10.5127 22.9002C10.6387 22.8072 10.7647 22.7098 10.8847 22.6124C10.8953 22.604 10.908 22.5986 10.9215 22.5968C10.935 22.5949 10.9487 22.5968 10.9612 22.602C14.8896 24.3672 19.1421 24.3672 23.0226 22.602C23.0355 22.5965 23.0498 22.5946 23.0638 22.5964C23.0778 22.5982 23.091 22.6037 23.1021 22.6124C23.2221 22.7098 23.3481 22.8072 23.4741 22.9002C23.4843 22.9075 23.4925 22.9172 23.4979 22.9284C23.5034 22.9397 23.5059 22.952 23.5053 22.9645C23.5047 22.9769 23.501 22.989 23.4945 22.9997C23.488 23.0103 23.4789 23.0192 23.4681 23.0256C22.8696 23.3689 22.2429 23.6621 21.5946 23.9023C21.5842 23.906 21.5748 23.9118 21.5671 23.9195C21.5593 23.9271 21.5533 23.9364 21.5496 23.9466C21.5461 23.9564 21.5447 23.9669 21.5455 23.9773C21.5463 23.9877 21.5492 23.9978 21.5541 24.0071C21.9141 24.6934 22.3266 25.3487 22.7796 25.9685C22.7887 25.9814 22.8018 25.991 22.8169 25.9961C22.832 26.0011 22.8484 26.0013 22.8636 25.9966C25.0218 25.3458 27.0513 24.3375 28.865 23.0153C28.8741 23.0091 28.8816 23.001 28.8871 22.9915C28.8925 22.9821 28.8958 22.9715 28.8965 22.9607C29.3975 17.8674 28.058 13.4426 25.3475 9.52119C25.3448 9.51472 25.3407 9.50888 25.3356 9.50405C25.3304 9.49922 25.3243 9.4955 25.3175 9.49315ZM13.0207 20.2775C11.8372 20.2775 10.8637 19.209 10.8637 17.8984C10.8637 16.5863 11.8192 15.5177 13.0207 15.5177C14.2312 15.5177 15.1956 16.5951 15.1776 17.8984C15.1776 19.209 14.2222 20.2775 13.0207 20.2775ZM20.9946 20.2775C19.8126 20.2775 18.8376 19.209 18.8376 17.8984C18.8376 16.5863 19.7931 15.5177 20.9946 15.5177C22.2051 15.5177 23.1711 16.5951 23.1516 17.8984C23.1516 19.209 22.2051 20.2775 20.9946 20.2775Z" fill="#FAFAFA"/>
</svg>
