<svg width="336" height="92" viewBox="0 0 336 92" fill="none" xmlns="http://www.w3.org/2000/svg">
<rect width="336" height="92" rx="10" fill="#5865F2"/>
<path d="M165.624 56V33.44H173.592C177.304 33.44 180.163 34.4107 182.168 36.352C184.195 38.2933 185.208 41.0773 185.208 44.704C185.208 48.3307 184.195 51.1253 182.168 53.088C180.163 55.0293 177.304 56 173.592 56H165.624ZM168.952 53.216H173.4C178.968 53.216 181.752 50.3787 181.752 44.704C181.752 39.0507 178.968 36.224 173.4 36.224H168.952V53.216ZM189.015 36.768V33.408H192.791V36.768H189.015ZM189.303 56V40.384H192.535V56H189.303ZM202.557 56.288C201.277 56.288 200.082 56.128 198.973 55.808C197.863 55.4667 196.935 54.9973 196.189 54.4L197.117 52.224C197.906 52.7787 198.77 53.2053 199.709 53.504C200.669 53.8027 201.629 53.952 202.589 53.952C203.719 53.952 204.573 53.7493 205.149 53.344C205.725 52.9387 206.013 52.3947 206.013 51.712C206.013 51.1573 205.821 50.7307 205.437 50.432C205.053 50.112 204.477 49.8667 203.709 49.696L200.669 49.088C197.981 48.5333 196.637 47.1467 196.637 44.928C196.637 43.456 197.223 42.2827 198.397 41.408C199.57 40.5333 201.106 40.096 203.005 40.096C204.093 40.096 205.127 40.256 206.109 40.576C207.111 40.896 207.943 41.376 208.605 42.016L207.677 44.192C207.037 43.6373 206.301 43.2107 205.469 42.912C204.637 42.6133 203.815 42.464 203.005 42.464C201.895 42.464 201.053 42.6773 200.477 43.104C199.901 43.5093 199.613 44.064 199.613 44.768C199.613 45.8347 200.317 46.5173 201.725 46.816L204.765 47.424C206.151 47.7013 207.197 48.1707 207.901 48.832C208.626 49.4933 208.989 50.3893 208.989 51.52C208.989 53.0133 208.402 54.1867 207.229 55.04C206.055 55.872 204.498 56.288 202.557 56.288ZM219.465 56.288C217.865 56.288 216.478 55.9573 215.305 55.296C214.153 54.6133 213.257 53.664 212.617 52.448C211.977 51.2107 211.657 49.76 211.657 48.096C211.657 45.6213 212.361 43.6693 213.769 42.24C215.177 40.8107 217.075 40.096 219.465 40.096C220.446 40.096 221.417 40.2667 222.377 40.608C223.337 40.9493 224.126 41.4187 224.745 42.016L223.721 44.288C223.123 43.7333 222.462 43.328 221.737 43.072C221.033 42.7947 220.361 42.656 219.72 42.656C218.206 42.656 217.033 43.136 216.201 44.096C215.39 45.0347 214.985 46.3787 214.985 48.128C214.985 49.8773 215.39 51.2533 216.201 52.256C217.033 53.2373 218.206 53.728 219.72 53.728C220.361 53.728 221.033 53.6 221.737 53.344C222.462 53.0667 223.123 52.6507 223.721 52.096L224.745 54.4C224.126 54.976 223.326 55.4347 222.345 55.776C221.385 56.1173 220.425 56.288 219.465 56.288ZM233.994 56.288C232.415 56.288 231.05 55.9573 229.898 55.296C228.746 54.6347 227.85 53.7067 227.21 52.512C226.591 51.296 226.282 49.856 226.282 48.192C226.282 46.528 226.591 45.0987 227.21 43.904C227.85 42.688 228.746 41.7493 229.898 41.088C231.05 40.4267 232.415 40.096 233.994 40.096C235.53 40.096 236.874 40.4267 238.026 41.088C239.178 41.7493 240.074 42.688 240.714 43.904C241.354 45.0987 241.674 46.528 241.674 48.192C241.674 49.856 241.354 51.296 240.714 52.512C240.074 53.7067 239.178 54.6347 238.026 55.296C236.874 55.9573 235.53 56.288 233.994 56.288ZM233.994 53.792C235.316 53.792 236.383 53.312 237.194 52.352C238.004 51.392 238.41 50.0053 238.41 48.192C238.41 46.3787 238.004 45.0027 237.194 44.064C236.383 43.104 235.316 42.624 233.994 42.624C232.65 42.624 231.572 43.104 230.762 44.064C229.951 45.0027 229.546 46.3787 229.546 48.192C229.546 50.0053 229.951 51.392 230.762 52.352C231.572 53.312 232.65 53.792 233.994 53.792ZM245.303 56V40.384H248.439V43.168C249.25 41.312 250.935 40.2773 253.495 40.064L254.551 40L254.775 42.752L252.823 42.944C249.986 43.2213 248.567 44.6827 248.567 47.328V56H245.303ZM262.974 56.288C261.609 56.288 260.403 55.968 259.358 55.328C258.334 54.6667 257.534 53.728 256.958 52.512C256.382 51.296 256.094 49.856 256.094 48.192C256.094 46.528 256.382 45.0987 256.958 43.904C257.534 42.688 258.334 41.7493 259.358 41.088C260.382 40.4267 261.587 40.096 262.974 40.096C264.147 40.096 265.193 40.352 266.11 40.864C267.027 41.376 267.71 42.0693 268.158 42.944V33.44H271.39V56H268.222V53.28C267.774 54.2187 267.081 54.9547 266.142 55.488C265.225 56.0213 264.169 56.288 262.974 56.288ZM263.806 53.792C265.129 53.792 266.195 53.312 267.006 52.352C267.817 51.392 268.222 50.0053 268.222 48.192C268.222 46.3787 267.817 45.0027 267.006 44.064C266.195 43.104 265.129 42.624 263.806 42.624C262.462 42.624 261.385 43.104 260.574 44.064C259.763 45.0027 259.358 46.3787 259.358 48.192C259.358 50.0053 259.763 51.392 260.574 52.352C261.385 53.312 262.462 53.792 263.806 53.792Z" fill="white"/>
<path d="M93.3335 24.9817C89.2485 23.1078 84.9379 21.7704 80.5092 21.0027C80.4691 20.996 80.4279 21.0018 80.3912 21.0194C80.3546 21.0371 80.3243 21.0656 80.3045 21.1011C79.7493 22.0851 79.1351 23.372 78.7059 24.3796C73.9321 23.6554 69.0764 23.6554 64.3027 24.3796C63.8239 23.2572 63.2823 22.1626 62.6804 21.1011C62.6602 21.066 62.6299 21.0378 62.5933 21.0202C62.5568 21.0026 62.5158 20.9966 62.4757 21.0027C58.046 21.7663 53.7345 23.1044 49.6514 24.9817C49.6164 24.9951 49.5872 25.0201 49.5687 25.0526C41.4024 37.2494 39.162 49.147 40.2605 60.8951C40.2645 60.9502 40.2999 61.0053 40.3432 61.0407C45.0986 64.5617 50.4176 67.2499 56.0734 68.9909C56.1133 69.0035 56.1562 69.003 56.1959 68.9896C56.2355 68.9761 56.2698 68.9504 56.2939 68.9161C57.5066 67.2631 58.5855 65.5196 59.5147 63.6855C59.5341 63.6478 59.5407 63.6047 59.5336 63.5629C59.5265 63.521 59.5061 63.4826 59.4753 63.4533C59.455 63.4341 59.4308 63.4194 59.4045 63.41C57.708 62.7584 56.0651 61.9754 54.4905 61.0683C54.4465 61.0434 54.4138 61.0025 54.3992 60.9542C54.3845 60.9058 54.389 60.8537 54.4118 60.8085C54.4252 60.7792 54.4454 60.7536 54.4708 60.7338C54.8016 60.4858 55.1323 60.226 55.4473 59.9663C55.4751 59.9439 55.5085 59.9296 55.5439 59.9247C55.5793 59.9198 55.6153 59.9247 55.6481 59.9387C65.9603 64.6459 77.123 64.6459 87.3092 59.9387C87.3433 59.924 87.3806 59.9188 87.4174 59.9237C87.4541 59.9285 87.4889 59.9432 87.5179 59.9663C87.8329 60.226 88.1637 60.4858 88.4944 60.7338C88.5212 60.7533 88.5427 60.7792 88.5571 60.8092C88.5714 60.8391 88.5781 60.8721 88.5765 60.9053C88.575 60.9384 88.5652 60.9706 88.5481 60.9991C88.531 61.0275 88.5072 61.0513 88.4787 61.0683C86.9077 61.9837 85.2626 62.7657 83.5608 63.4061C83.5336 63.4159 83.509 63.4316 83.4886 63.452C83.4681 63.4724 83.4525 63.497 83.4426 63.5242C83.4335 63.5505 83.4299 63.5783 83.4319 63.6061C83.434 63.6338 83.4416 63.6609 83.4545 63.6855C84.3995 65.5156 85.4823 67.2631 86.6714 68.9161C86.6954 68.9504 86.7297 68.9761 86.7694 68.9896C86.809 69.003 86.8519 69.0035 86.8919 68.9909C92.5571 67.2553 97.8847 64.5667 102.646 61.0407C102.669 61.0242 102.689 61.0026 102.704 60.9774C102.718 60.9522 102.726 60.924 102.728 60.8951C104.043 47.313 100.527 35.5137 93.4123 25.0565C93.4051 25.0392 93.3944 25.0237 93.3808 25.0108C93.3673 24.9979 93.3512 24.988 93.3335 24.9817ZM61.0543 53.74C57.9476 53.74 55.3922 50.8905 55.3922 47.3956C55.3922 43.8968 57.9004 41.0473 61.0543 41.0473C64.2318 41.0473 66.7636 43.9204 66.7163 47.3956C66.7163 50.8905 64.2082 53.74 61.0543 53.74ZM81.9858 53.74C78.8831 53.74 76.3237 50.8905 76.3237 47.3956C76.3237 43.8968 78.8319 41.0473 81.9858 41.0473C85.1633 41.0473 87.699 43.9204 87.6479 47.3956C87.6479 50.8905 85.1633 53.74 81.9858 53.74Z" fill="white"/>
</svg>
