<svg width="35" height="34" viewBox="0 0 35 34" fill="none" xmlns="http://www.w3.org/2000/svg">
<path d="M17.5 0C7.83125 0 0 7.79992 0 17.43C0 25.1428 5.00938 31.6572 11.9656 33.9667C12.8406 34.1192 13.1687 33.5963 13.1687 33.1388C13.1687 32.7248 13.1469 31.3522 13.1469 29.8924C8.75 30.6986 7.6125 28.8249 7.2625 27.8444C7.06562 27.3433 6.2125 25.7964 5.46875 25.3824C4.85625 25.0556 3.98125 24.2495 5.44688 24.2277C6.825 24.2059 7.80937 25.4914 8.1375 26.0143C9.7125 28.6506 12.2281 27.9098 13.2344 27.4522C13.3875 26.3193 13.8469 25.5567 14.35 25.121C10.4563 24.6852 6.3875 23.1819 6.3875 16.5149C6.3875 14.6194 7.06562 13.0507 8.18125 11.8306C8.00625 11.3949 7.39375 9.60828 8.35625 7.21166C8.35625 7.21166 9.82187 6.75412 13.1687 8.99823C14.5687 8.60606 16.0563 8.40997 17.5438 8.40997C19.0313 8.40997 20.5188 8.60606 21.9188 8.99823C25.2656 6.73234 26.7312 7.21166 26.7312 7.21166C27.6938 9.60828 27.0812 11.3949 26.9062 11.8306C28.0219 13.0507 28.7 14.5976 28.7 16.5149C28.7 23.2037 24.6094 24.6852 20.7156 25.121C21.35 25.6657 21.8969 26.7115 21.8969 28.3455C21.8969 30.6768 21.875 32.5505 21.875 33.1388C21.875 33.5963 22.2031 34.141 23.0781 33.9667C26.5524 32.7989 29.5714 30.5751 31.7101 27.6086C33.8487 24.642 34.9994 21.0821 35 17.43C35 7.79992 27.1687 0 17.5 0Z" fill="#3B3B3B"/>
</svg>
