<svg width="336" height="92" viewBox="0 0 336 92" fill="none" xmlns="http://www.w3.org/2000/svg">
<rect width="336" height="92" rx="10" fill="#232323"/>
<path d="M176.184 58.288C173.731 58.288 171.661 57.8293 169.976 56.912C168.291 55.9733 167.011 54.64 166.136 52.912C165.283 51.184 164.856 49.1253 164.856 46.736C164.856 44.368 165.293 42.32 166.168 40.592C167.043 38.8427 168.312 37.4987 169.976 36.56C171.64 35.6213 173.635 35.152 175.96 35.152C177.56 35.152 179.043 35.3867 180.408 35.856C181.773 36.3253 182.915 36.9973 183.832 37.872L182.648 40.464C181.624 39.6107 180.579 39.0027 179.512 38.64C178.445 38.256 177.261 38.064 175.96 38.064C173.464 38.064 171.565 38.8213 170.264 40.336C168.963 41.8293 168.312 43.9627 168.312 46.736C168.312 49.5733 168.973 51.728 170.296 53.2C171.64 54.672 173.645 55.408 176.312 55.408C177.933 55.408 179.544 55.1413 181.144 54.608V48.56H175.64V46.064H183.928V56.688C182.968 57.1573 181.773 57.5413 180.344 57.84C178.936 58.1387 177.549 58.288 176.184 58.288ZM188.39 38.768V35.408H192.166V38.768H188.39ZM188.678 58V42.384H191.91V58H188.678ZM203.116 58.288C201.153 58.288 199.692 57.7867 198.732 56.784C197.772 55.7813 197.292 54.3307 197.292 52.432V44.88H194.252V42.384H197.292V37.68H200.524V42.384H205.356V44.88H200.524V52.176C200.524 53.3067 200.758 54.16 201.228 54.736C201.718 55.312 202.508 55.6 203.595 55.6C203.937 55.6 204.268 55.568 204.588 55.504C204.908 55.4187 205.228 55.3227 205.548 55.216L206.06 57.648C205.74 57.84 205.292 57.9893 204.716 58.096C204.161 58.224 203.628 58.288 203.116 58.288ZM208.499 58V35.44H211.827V45.168H224.467V35.44H227.763V58H224.467V47.952H211.827V58H208.499ZM238.246 58.288C234.47 58.288 232.582 56.1867 232.582 51.984V42.384H235.814V52.016C235.814 53.2747 236.07 54.2027 236.582 54.8C237.094 55.3973 237.905 55.696 239.014 55.696C240.23 55.696 241.212 55.2907 241.958 54.48C242.726 53.6693 243.11 52.5813 243.11 51.216V42.384H246.342V58H243.206V55.504C242.694 56.4213 242.012 57.1147 241.158 57.584C240.305 58.0533 239.334 58.288 238.246 58.288ZM259.281 58.288C258.086 58.288 257.03 58.0213 256.113 57.488C255.196 56.9547 254.513 56.24 254.065 55.344V58H250.897V35.44H254.129V44.912C254.598 44.0587 255.281 43.376 256.177 42.864C257.094 42.352 258.129 42.096 259.281 42.096C260.668 42.096 261.873 42.4267 262.897 43.088C263.942 43.7493 264.742 44.688 265.297 45.904C265.873 47.0987 266.161 48.528 266.161 50.192C266.161 51.856 265.873 53.296 265.297 54.512C264.742 55.728 263.942 56.6667 262.897 57.328C261.873 57.968 260.668 58.288 259.281 58.288ZM258.481 55.792C259.825 55.792 260.892 55.312 261.681 54.352C262.492 53.392 262.897 52.0053 262.897 50.192C262.897 48.3787 262.492 47.0027 261.681 46.064C260.892 45.104 259.825 44.624 258.481 44.624C257.137 44.624 256.06 45.104 255.249 46.064C254.46 47.0027 254.065 48.3787 254.065 50.192C254.065 52.0053 254.46 53.392 255.249 54.352C256.06 55.312 257.137 55.792 258.481 55.792Z" fill="white"/>
<path d="M71.5 16C54.0962 16 40 30.2234 40 47.7841C40 61.8486 49.0169 73.7279 61.5381 77.9393C63.1131 78.2174 63.7038 77.2639 63.7038 76.4295C63.7038 75.6747 63.6644 73.1717 63.6644 70.5098C55.75 71.9798 53.7025 68.563 53.0725 66.7751C52.7181 65.8613 51.1825 63.0405 49.8438 62.2856C48.7413 61.6897 47.1662 60.2196 49.8044 60.1799C52.285 60.1402 54.0569 62.4843 54.6475 63.4378C57.4825 68.2451 62.0106 66.8943 63.8219 66.06C64.0975 63.994 64.9244 62.6035 65.83 61.8088C58.8212 61.0142 51.4975 58.2729 51.4975 46.1154C51.4975 42.6589 52.7181 39.7984 54.7262 37.5735C54.4113 36.7789 53.3088 33.521 55.0413 29.1507C55.0413 29.1507 57.6794 28.3163 63.7038 32.4085C66.2237 31.6934 68.9013 31.3358 71.5788 31.3358C74.2563 31.3358 76.9338 31.6934 79.4538 32.4085C85.4781 28.2766 88.1162 29.1507 88.1162 29.1507C89.8488 33.521 88.7463 36.7789 88.4313 37.5735C90.4394 39.7984 91.66 42.6192 91.66 46.1154C91.66 58.3126 84.2969 61.0142 77.2881 61.8088C78.43 62.8021 79.4144 64.7092 79.4144 67.6889C79.4144 71.94 79.375 75.3568 79.375 76.4295C79.375 77.2639 79.9656 78.2571 81.5406 77.9393C87.7943 75.8097 93.2285 71.7547 97.0781 66.3451C100.928 60.9355 102.999 54.4438 103 47.7841C103 30.2234 88.9038 16 71.5 16Z" fill="white"/>
</svg>
