<svg id="visual" viewBox="0 0 540 960" width="540" height="960" xmlns="http://www.w3.org/2000/svg" xmlns:xlink="http://www.w3.org/1999/xlink" version="1.1"><rect x="0" y="0" width="540" height="960" fill="#001220"></rect><path d="M0 669L12.8 654.3C25.7 639.7 51.3 610.3 77 615.7C102.7 621 128.3 661 154 673.7C179.7 686.3 205.3 671.7 231.2 657.7C257 643.7 283 630.3 308.8 620.2C334.7 610 360.3 603 386 606C411.7 609 437.3 622 463 620C488.7 618 514.3 601 527.2 592.5L540 584L540 961L527.2 961C514.3 961 488.7 961 463 961C437.3 961 411.7 961 386 961C360.3 961 334.7 961 308.8 961C283 961 257 961 231.2 961C205.3 961 179.7 961 154 961C128.3 961 102.7 961 77 961C51.3 961 25.7 961 12.8 961L0 961Z" fill="#7663f2"></path><path d="M0 665L12.8 671.7C25.7 678.3 51.3 691.7 77 707.2C102.7 722.7 128.3 740.3 154 746.5C179.7 752.7 205.3 747.3 231.2 736.8C257 726.3 283 710.7 308.8 703.3C334.7 696 360.3 697 386 704C411.7 711 437.3 724 463 720.5C488.7 717 514.3 697 527.2 687L540 677L540 961L527.2 961C514.3 961 488.7 961 463 961C437.3 961 411.7 961 386 961C360.3 961 334.7 961 308.8 961C283 961 257 961 231.2 961C205.3 961 179.7 961 154 961C128.3 961 102.7 961 77 961C51.3 961 25.7 961 12.8 961L0 961Z" fill="#6150c2"></path><path d="M0 816L12.8 812C25.7 808 51.3 800 77 789.7C102.7 779.3 128.3 766.7 154 756.8C179.7 747 205.3 740 231.2 747.7C257 755.3 283 777.7 308.8 779.3C334.7 781 360.3 762 386 758.3C411.7 754.7 437.3 766.3 463 768C488.7 769.7 514.3 761.3 527.2 757.2L540 753L540 961L527.2 961C514.3 961 488.7 961 463 961C437.3 961 411.7 961 386 961C360.3 961 334.7 961 308.8 961C283 961 257 961 231.2 961C205.3 961 179.7 961 154 961C128.3 961 102.7 961 77 961C51.3 961 25.7 961 12.8 961L0 961Z" fill="#4c3d94"></path><path d="M0 852L12.8 854C25.7 856 51.3 860 77 857.7C102.7 855.3 128.3 846.7 154 846.8C179.7 847 205.3 856 231.2 846C257 836 283 807 308.8 798.2C334.7 789.3 360.3 800.7 386 804.3C411.7 808 437.3 804 463 799.3C488.7 794.7 514.3 789.3 527.2 786.7L540 784L540 961L527.2 961C514.3 961 488.7 961 463 961C437.3 961 411.7 961 386 961C360.3 961 334.7 961 308.8 961C283 961 257 961 231.2 961C205.3 961 179.7 961 154 961C128.3 961 102.7 961 77 961C51.3 961 25.7 961 12.8 961L0 961Z" fill="#372b68"></path><path d="M0 868L12.8 868C25.7 868 51.3 868 77 870.7C102.7 873.3 128.3 878.7 154 876.8C179.7 875 205.3 866 231.2 867.8C257 869.7 283 882.3 308.8 892.7C334.7 903 360.3 911 386 908C411.7 905 437.3 891 463 884.7C488.7 878.3 514.3 879.7 527.2 880.3L540 881L540 961L527.2 961C514.3 961 488.7 961 463 961C437.3 961 411.7 961 386 961C360.3 961 334.7 961 308.8 961C283 961 257 961 231.2 961C205.3 961 179.7 961 154 961C128.3 961 102.7 961 77 961C51.3 961 25.7 961 12.8 961L0 961Z" fill="#231b40"></path></svg>