<svg width="21" height="26" viewBox="0 0 21 26" fill="none" xmlns="http://www.w3.org/2000/svg">
<path d="M0 4.20031C0 1.88046 4.70114 0 10.5 0C16.2989 0 21 1.88046 21 4.20031V6.29969C21 8.61954 16.2989 10.5 10.5 10.5C4.70114 10.5 0 8.61954 0 6.29969V4.20031Z" fill="#8B7CF1"/>
<path d="M0 9.97559V14.7003C0 17.0171 4.70114 18.8991 10.5 18.8991C16.2989 18.8991 21 17.0186 21 14.6988V9.97559C20.2908 10.4865 19.5191 10.9046 18.7038 11.2198C16.5004 12.1017 13.5979 12.5994 10.5 12.5994C7.4037 12.5994 4.50113 12.1002 2.29781 11.2198C1.48248 10.9047 0.710802 10.4865 0.00157499 9.97559H0Z" fill="#8B7CF1"/>
<path d="M21 18.3762C20.2907 18.8866 19.519 19.3042 18.7038 19.6188C16.4989 20.5008 13.5979 20.9985 10.4984 20.9985C7.40213 20.9985 4.49955 20.5008 2.29624 19.6188C1.48092 19.3037 0.709245 18.8856 0 18.3746V20.9985C0 23.3183 4.70114 25.1988 10.5 25.1988C16.2989 25.1988 21 23.3183 21 20.9985V18.3762Z" fill="#8B7CF1"/>
</svg>
