<svg width="30" height="24" viewBox="0 0 30 24" fill="none" xmlns="http://www.w3.org/2000/svg">
<path d="M15.9375 3.28046C17.1637 2.01855 19.2788 1.65775 21.7725 1.90317C24.0863 2.13027 26.4656 2.86104 28.125 3.5387V21.7127C26.4037 21.0717 24.1744 20.4453 21.9619 20.2292C19.9106 20.0259 17.6906 20.1578 15.9375 21.1303V3.28046ZM15 1.62478C13.1531 0.0734961 10.4756 -0.157273 8.03813 0.0808221C5.19938 0.361042 2.33438 1.31159 0.549375 2.10463C0.385592 2.17739 0.246704 2.29466 0.149289 2.44242C0.051875 2.59019 4.98214e-05 2.76221 0 2.93797L0 23.0845C4.34287e-05 23.2377 0.0394446 23.3885 0.114595 23.523C0.189744 23.6575 0.298241 23.7714 0.430145 23.8543C0.56205 23.9372 0.713146 23.9865 0.869594 23.9976C1.02604 24.0087 1.18284 23.9813 1.32563 23.9178C2.97938 23.1852 5.64375 22.3043 8.22563 22.0497C10.8675 21.7896 13.0819 22.209 14.2688 23.6559C14.3566 23.7629 14.4679 23.8492 14.5945 23.9085C14.721 23.9678 14.8596 23.9986 15 23.9986C15.1404 23.9986 15.279 23.9678 15.4055 23.9085C15.5321 23.8492 15.6434 23.7629 15.7313 23.6559C16.9181 22.209 19.1325 21.7896 21.7725 22.0497C24.3563 22.3043 27.0225 23.1852 28.6744 23.9178C28.8172 23.9813 28.974 24.0087 29.1304 23.9976C29.2869 23.9865 29.438 23.9372 29.5699 23.8543C29.7018 23.7714 29.8103 23.6575 29.8854 23.523C29.9606 23.3885 30 23.2377 30 23.0845V2.93797C30 2.76221 29.9481 2.59019 29.8507 2.44242C29.7533 2.29466 29.6144 2.17739 29.4506 2.10463C27.6656 1.31159 24.8006 0.361042 21.9619 0.0808221C19.5244 -0.159105 16.8469 0.0734961 15 1.62478Z" fill="#8B7CF1"/>
</svg>
