<svg width="32" height="24" viewBox="0 0 32 24" fill="none" xmlns="http://www.w3.org/2000/svg">
<path fill-rule="evenodd" clip-rule="evenodd" d="M9.14275 21.7126C9.14275 21.4096 9.26313 21.1189 9.47742 20.9046C9.69171 20.6904 9.98236 20.57 10.2854 20.57H30.8533C31.1564 20.57 31.447 20.6904 31.6613 20.9046C31.8756 21.1189 31.996 21.4096 31.996 21.7126C31.996 22.0157 31.8756 22.3063 31.6613 22.5206C31.447 22.7349 31.1564 22.8553 30.8533 22.8553H10.2854C9.98236 22.8553 9.69171 22.7349 9.47742 22.5206C9.26313 22.3063 9.14275 22.0157 9.14275 21.7126ZM9.14275 12.5713C9.14275 12.2683 9.26313 11.9776 9.47742 11.7633C9.69171 11.5491 9.98236 11.4287 10.2854 11.4287H30.8533C31.1564 11.4287 31.447 11.5491 31.6613 11.7633C31.8756 11.9776 31.996 12.2683 31.996 12.5713C31.996 12.8744 31.8756 13.165 31.6613 13.3793C31.447 13.5936 31.1564 13.714 30.8533 13.714H10.2854C9.98236 13.714 9.69171 13.5936 9.47742 13.3793C9.26313 13.165 9.14275 12.8744 9.14275 12.5713ZM9.14275 3.43003C9.14275 3.12698 9.26313 2.83634 9.47742 2.62205C9.69171 2.40776 9.98236 2.28737 10.2854 2.28737H30.8533C31.1564 2.28737 31.447 2.40776 31.6613 2.62205C31.8756 2.83634 31.996 3.12698 31.996 3.43003C31.996 3.73308 31.8756 4.02372 31.6613 4.23801C31.447 4.45231 31.1564 4.57269 30.8533 4.57269H10.2854C9.98236 4.57269 9.69171 4.45231 9.47742 4.23801C9.26313 4.02372 9.14275 3.73308 9.14275 3.43003ZM6.52376 0.3357C6.63017 0.441843 6.7146 0.567938 6.77221 0.70676C6.82981 0.845582 6.85946 0.994406 6.85946 1.14471C6.85946 1.295 6.82981 1.44383 6.77221 1.58265C6.7146 1.72147 6.63017 1.84757 6.52376 1.95371L3.09577 5.3817C2.98963 5.48811 2.86354 5.57254 2.72471 5.63014C2.58589 5.68775 2.43707 5.7174 2.28677 5.7174C2.13647 5.7174 1.98765 5.68775 1.84882 5.63014C1.71 5.57254 1.58391 5.48811 1.47776 5.3817L0.335101 4.23904C0.228861 4.1328 0.144587 4.00667 0.0870898 3.86786C0.0295931 3.72905 1.5831e-09 3.58028 0 3.43003C-1.5831e-09 3.27978 0.0295931 3.13101 0.0870898 2.9922C0.144587 2.85339 0.228861 2.72727 0.335101 2.62103C0.441341 2.51479 0.567466 2.43051 0.706276 2.37301C0.845085 2.31552 0.99386 2.28592 1.14411 2.28592C1.29435 2.28592 1.44313 2.31552 1.58194 2.37301C1.72075 2.43051 1.84687 2.51479 1.95311 2.62103L2.28677 2.95697L4.90575 0.3357C5.01189 0.229288 5.13799 0.144862 5.27681 0.0872567C5.41563 0.0296518 5.56446 0 5.71476 0C5.86506 0 6.01388 0.0296518 6.1527 0.0872567C6.29152 0.144862 6.41762 0.229288 6.52376 0.3357ZM6.52376 9.477C6.63017 9.58314 6.7146 9.70924 6.77221 9.84806C6.82981 9.98688 6.85946 10.1357 6.85946 10.286C6.85946 10.4363 6.82981 10.5851 6.77221 10.724C6.7146 10.8628 6.63017 10.9889 6.52376 11.095L3.09577 14.523C2.98963 14.6294 2.86354 14.7138 2.72471 14.7714C2.58589 14.829 2.43707 14.8587 2.28677 14.8587C2.13647 14.8587 1.98765 14.829 1.84882 14.7714C1.71 14.7138 1.58391 14.6294 1.47776 14.523L0.335101 13.3803C0.12054 13.1658 0 12.8748 0 12.5713C0 12.2679 0.12054 11.9769 0.335101 11.7623C0.549663 11.5478 0.84067 11.4272 1.14411 11.4272C1.44754 11.4272 1.73855 11.5478 1.95311 11.7623L2.28677 12.0983L4.90575 9.477C5.01189 9.37059 5.13799 9.28616 5.27681 9.22856C5.41563 9.17095 5.56446 9.1413 5.71476 9.1413C5.86506 9.1413 6.01388 9.17095 6.1527 9.22856C6.29152 9.28616 6.41762 9.37059 6.52376 9.477ZM6.52376 18.6183C6.63017 18.7244 6.7146 18.8505 6.77221 18.9894C6.82981 19.1282 6.85946 19.277 6.85946 19.4273C6.85946 19.5776 6.82981 19.7264 6.77221 19.8653C6.7146 20.0041 6.63017 20.1302 6.52376 20.2363L3.09577 23.6643C2.98963 23.7707 2.86354 23.8551 2.72471 23.9127C2.58589 23.9703 2.43707 24 2.28677 24C2.13647 24 1.98765 23.9703 1.84882 23.9127C1.71 23.8551 1.58391 23.7707 1.47776 23.6643L0.335101 22.5216C0.12054 22.3071 0 22.0161 0 21.7126C0 21.4092 0.12054 21.1182 0.335101 20.9036C0.549663 20.6891 0.84067 20.5685 1.14411 20.5685C1.44754 20.5685 1.73855 20.6891 1.95311 20.9036L2.28677 21.2396L4.90575 18.6183C5.01189 18.5119 5.13799 18.4275 5.27681 18.3699C5.41563 18.3123 5.56446 18.2826 5.71476 18.2826C5.86506 18.2826 6.01388 18.3123 6.1527 18.3699C6.29152 18.4275 6.41762 18.5119 6.52376 18.6183Z" fill="#8B7CF1"/>
</svg>
